<?xml version="1.0" encoding="UTF-8"?>
<svg id="b" data-name="Layer 2" xmlns="http://www.w3.org/2000/svg" viewBox="0 0 550.9 635.5">
  <defs>
    <style>
      .d {
        stroke: #000;
        stroke-miterlimit: 10;
        stroke-width: 8px;
      }
    </style>
  </defs>
  <g id="c" data-name="Layer 1">
    <g>
      <path class="d" d="M189.55,501.8c-10.92-66.23-58.22-119.96-86.59-180.79-28.38-60.83-46.78-133.56-17.18-193.81,12.1-24.62,31.23-44.97,50.12-64.86,9.65-10.16,15.94-13.73,18.51-12.53,2.95,1.38,14.53,7.84,10.73,12.41-12.17,14.67-11.1,14.51-17.96,21.47-21.37,21.69-34.8,49.97-38.13,80.24-2.94,26.63-5.64,54.14.46,80.38,5.46,23.48,18.93,46.12,40.17,57.51,0,0,0,0,0,0,5.43-23.16,6.74-34.31,2.49-57.71-3.3-18.17-21.68-38.52-26.43-42.12-23.95-18.17-50.17-32.45-88.16-44.84,2.47-6.22,6.22-12.98,6.22-12.98.66-1.64,25.48.21,41.47,9.09,37.16,20.65,60.3,31.76,81.44,57.5,0,0,0,0,0,0-1.47-32.92-16.04-64.18-35.71-90.62-20.22-27.19-37.32-50.68-58.3-78.04,9.18-4.69,8.9-4.53,12.98-6.8,24.34,24.97,59.72,56.69,78.32,90.41,27.35,49.56,33.28,110.48,15.99,164.38,0,0,0,.01.01,0,33.75-26.04,44.83-34.4,48.96-42.66,4.82-9.63,9.09-29.73-8.26-61.12-5.21-9.43-14.36-17.65-25.6-35.52-14.04-22.3,4.96-46.25,9.09-52.03,3.46-4.85,15.69-19,22.3-26.43,6.61-7.43,29.87-27.12,29.87-27.12,10.33,11.64,6,5.9,11.88,13.01,0,0-23.83,29.62-46.71,59.54-10.74,14.04,5.73,37.8,17.34,51.21,10.74,12.39,36.12,54.48,15.27,88.3-19.4,31.46-35.66,41.49-57.01,68.9-5.44,6.99-9.56,19.53-10.21,28.37-1.89,25.5,42.54,67.04,39.96,92.47,10.34-20.43,34.7-46.59,52.48-61.02,30.8-24.99,30.5-27.76,14.56-65.5-5.55-13.13-10.26-22.76-12.74-36.79-3.86-21.82,4.53-74.93,24.45-118.74,15.34-33.75,38.81-68.1,46.56-88.91,9.04,2.49,13.94,3.55,16.91,4.36,0,0-13.09,48.54-38.9,105.18-8.64,18.95-20.34,45.68-16.56,70.34,0,0,0,0,.01,0,21.66-22.66,33.99-38.38,50.24-59,18.49-23.45,27.67-40.23-24.39-57.9-7.7-2.61-36.25-9.78-52.02-14.32-.43-.12.35-2.21,1.66-10.92,1.49-9.87.91-10.12,5.09-9.27,10.96,2.25,79.52,21.67,95.96,38.64,31.12,32.16,1,64.82.97,64.86h0c-12.73,16.28-24.29,28.67-35.03,40.23-11.34,12.21-14.87,15.69-35.77,41.1-2.82,3.43,5.64,18.1,8.15,23.24,7.16,14.64,5.89,11.58,11.9,23.29,0,0,.01.01.02,0,21.5-10.7,44.77-58.4,52.56-81.11,8.9-25.94,22.28-53.55,35.1-78.54,14.34-27.96,33.36-28.78,73.92-31.01,0,0,1.36-2.87,9.3,13.62-11.02,3.09-49.86,4.84-63.93,21.71-2.72,3.27-19.01,30.68-26.91,65.92,0,0,61.84-12.56,61.84-12.56,0,0-.12,6.04-.12,6.04,0,0,.12,4.19.12,4.19-23.93,14.15-54.49,11.89-62.99,20.31-12.41,12.29-16.86,27.34-25.68,48.58-13.46,32.42-19.47,38.66-44.85,62.92-11.7,11.18-17.57,12.77-46.94,45.7-19.28,21.62-21.19,21.17-26.37,26.76-14.38,15.48-23.1,35.34-24.94,56.39-.01.16-.03.32-.04.49-1.86,20.79-1.6,42.87-1.55,66.3.12,64.46,15.12,59.42-29.15,59.7-46.16.29-29.18,5.49-29.71-58.93-.19-23.01,1.66-47.75-.59-70.56Z"/>
      <g>
        <g>
          <path d="M34.52,113.89c0,17.9,0,35.79,0,53.69v15.41c0,.97,1.5.97,1.5,0,0-17.9,0-35.79,0-53.69v-15.41c0-.97-1.5-.97-1.5,0h0Z"/>
          <path d="M17.39,118.87c8.93,15.51,17.85,31.02,26.78,46.53l7.69,13.36c.48.84,1.78.08,1.3-.76-8.93-15.51-17.85-31.02-26.78-46.53-2.56-4.45-5.12-8.9-7.69-13.36-.48-.84-1.78-.08-1.3.76h0Z"/>
          <path d="M.72,149.19c17.9,0,35.79,0,53.69,0h15.41c.97,0,.97-1.5,0-1.5-17.9,0-35.79,0-53.69,0H.72c-.97,0-.97,1.5,0,1.5h0Z"/>
          <path d="M5,131.77c15.49,8.97,30.97,17.94,46.46,26.91l13.34,7.72c.84.48,1.59-.81.76-1.3-15.49-8.97-30.97-17.94-46.46-26.91-4.45-2.57-8.89-5.15-13.34-7.72-.84-.48-1.59.81-.76,1.3h0Z"/>
          <path d="M5.73,166.36c15.5-8.95,31-17.9,46.5-26.84,4.45-2.57,8.9-5.14,13.35-7.71.84-.48.08-1.78-.76-1.3-15.5,8.95-31,17.9-46.5,26.84-4.45,2.57-8.9,5.14-13.35,7.71-.84.48-.08,1.78.76,1.3h0Z"/>
          <path d="M18.65,178.74c8.95-15.5,17.9-31,26.84-46.5,2.57-4.45,5.14-8.9,7.71-13.35.48-.84-.81-1.59-1.3-.76l-26.84,46.5-7.71,13.35c-.48.84.81,1.59,1.3.76h0Z"/>
        </g>
        <g>
          <path d="M10.11,124.74c12.76,12.55,25.52,25.09,38.28,37.64l10.99,10.8c.69.68,1.75-.38,1.06-1.06-12.76-12.55-25.52-25.09-38.28-37.64l-10.99-10.8c-.69-.68-1.75.38-1.06,1.06h0Z"/>
          <path d="M1.64,140.46c17.32,4.51,34.64,9.02,51.96,13.53l14.91,3.88c.93.24,1.33-1.2.4-1.45-17.32-4.51-34.64-9.02-51.96-13.53l-14.91-3.88c-.93-.24-1.33,1.2-.4,1.45h0Z"/>
          <path d="M11.58,173.6c12.55-12.76,25.09-25.52,37.64-38.28l10.8-10.99c.68-.69-.38-1.75-1.06-1.06-12.55,12.76-25.09,25.52-37.64,38.28l-10.8,10.99c-.68.69.38,1.75,1.06,1.06h0Z"/>
          <path d="M2.17,158.34c17.25-4.75,34.51-9.51,51.76-14.26l14.86-4.09c.93-.26.53-1.7-.4-1.45-17.25,4.75-34.51,9.51-51.76,14.26l-14.86,4.09c-.93.26-.53,1.7.4,1.45h0Z"/>
          <path d="M27.34,182.08c4.49-17.33,8.97-34.65,13.46-51.98l3.86-14.92c.24-.94-1.2-1.33-1.45-.4-4.49,17.33-8.97,34.65-13.46,51.98-1.29,4.97-2.58,9.95-3.86,14.92-.24.94,1.2,1.33,1.45.4h0Z"/>
          <path d="M45.22,181.53c-4.78-17.25-9.56-34.49-14.33-51.74l-4.11-14.85c-.26-.93-1.7-.53-1.45.4,4.78,17.25,9.56,34.49,14.33,51.74,1.37,4.95,2.74,9.9,4.11,14.85.26.93,1.7.53,1.45-.4h0Z"/>
        </g>
        <g>
          <path d="M13.74,121.29c10.82,14.26,21.64,28.51,32.45,42.77l9.32,12.28c.58.76,1.88.01,1.3-.76-10.82-14.26-21.64-28.51-32.45-42.77-3.11-4.09-6.21-8.18-9.32-12.28-.58-.76-1.88-.01-1.3.76h0Z"/>
          <path d="M3.07,135.65c16.49,6.96,32.97,13.92,49.46,20.88,4.73,2,9.46,4,14.2,5.99.88.37,1.64-.92.76-1.3-16.49-6.96-32.97-13.92-49.46-20.88l-14.2-5.99c-.88-.37-1.64.92-.76,1.3h0Z"/>
          <path d="M8.13,169.97c14.26-10.82,28.51-21.64,42.77-32.45l12.28-9.32c.76-.58.01-1.88-.76-1.3-14.26,10.82-28.51,21.64-42.77,32.45l-12.28,9.32c-.76.58-.01,1.88.76,1.3h0Z"/>
          <path d="M.99,153.47c17.76-2.22,35.52-4.43,53.28-6.65l15.29-1.91c.95-.12.96-1.62,0-1.5l-53.28,6.65-15.29,1.91c-.95.12-.96,1.62,0,1.5h0Z"/>
          <path d="M22.6,180.48c6.94-16.5,13.88-32.99,20.81-49.49l5.97-14.21c.37-.89-1.08-1.28-1.45-.4-6.94,16.5-13.88,32.99-20.81,49.49-1.99,4.74-3.98,9.47-5.97,14.21-.37.89,1.08,1.28,1.45.4h0Z"/>
          <path d="M40.35,182.72c-2.24-17.76-4.48-35.51-6.72-53.27l-1.93-15.29c-.12-.94-1.62-.96-1.5,0,2.24,17.76,4.48,35.51,6.72,53.27l1.93,15.29c.12.94,1.62.96,1.5,0h0Z"/>
        </g>
        <g>
          <path d="M21.17,116.99c6.97,16.48,13.94,32.97,20.9,49.45,2,4.73,4,9.46,6,14.19.37.89,1.67.12,1.3-.76-6.97-16.48-13.94-32.97-20.9-49.45-2-4.73-4-9.46-6-14.19-.37-.89-1.67-.12-1.3.76h0Z"/>
          <path d="M7.36,128.21c14.26,10.81,28.52,21.62,42.79,32.43,4.09,3.1,8.19,6.21,12.28,9.31.77.58,1.52-.72.76-1.3-14.26-10.81-28.52-21.62-42.79-32.43-4.09-3.1-8.19-6.21-12.28-9.31-.77-.58-1.52.72-.76,1.3h0Z"/>
          <path d="M3.83,162.54c16.48-6.97,32.97-13.94,49.45-20.9l14.19-6c.89-.37.12-1.67-.76-1.3-16.48,6.97-32.97,13.94-49.45,20.9l-14.19,6c-.89.37-.12,1.67.76,1.3h0Z"/>
          <path d="M.99,144.88c17.76,2.23,35.51,4.46,53.27,6.69l15.29,1.92c.96.12.95-1.38,0-1.5-17.76-2.23-35.51-4.46-53.27-6.69l-15.29-1.92c-.96-.12-.95,1.38,0,1.5h0Z"/>
          <path d="M15.09,176.38c10.79-14.28,21.58-28.55,32.37-42.83,3.1-4.1,6.2-8.2,9.29-12.29.58-.77-.72-1.52-1.3-.76-10.79,14.28-21.58,28.55-32.37,42.83-3.1,4.1-6.2,8.2-9.29,12.29-.58.77.72,1.52,1.3.76h0Z"/>
          <path d="M31.76,182.72c2.21-17.76,4.42-35.52,6.62-53.28l1.9-15.29c.12-.96-1.38-.95-1.5,0-2.21,17.76-4.42,35.52-6.62,53.28l-1.9,15.29c-.12.96,1.38.95,1.5,0h0Z"/>
        </g>
      </g>
      <g>
        <g>
          <path d="M76.5.72c0,17.9,0,35.79,0,53.69v15.41c0,.97,1.5.97,1.5,0,0-17.9,0-35.79,0-53.69V.72c0-.97-1.5-.97-1.5,0h0Z"/>
          <path d="M59.37,5.71c8.93,15.51,17.85,31.02,26.78,46.53l7.69,13.36c.48.84,1.78.08,1.3-.76-8.93-15.51-17.85-31.02-26.78-46.53l-7.69-13.36c-.48-.84-1.78-.08-1.3.76h0Z"/>
          <path d="M42.7,36.02c17.9,0,35.79,0,53.69,0h15.41c.97,0,.97-1.5,0-1.5-17.9,0-35.79,0-53.69,0h-15.41c-.97,0-.97,1.5,0,1.5h0Z"/>
          <path d="M46.97,18.61c15.49,8.97,30.97,17.94,46.46,26.91l13.34,7.72c.84.48,1.59-.81.76-1.3-15.49-8.97-30.97-17.94-46.46-26.91l-13.34-7.72c-.84-.48-1.59.81-.76,1.3h0Z"/>
          <path d="M47.71,53.2c15.5-8.95,31-17.9,46.5-26.84l13.35-7.71c.84-.48.08-1.78-.76-1.3-15.5,8.95-31,17.9-46.5,26.84l-13.35,7.71c-.84.48-.08,1.78.76,1.3h0Z"/>
          <path d="M60.62,65.57c8.95-15.5,17.9-31,26.84-46.5,2.57-4.45,5.14-8.9,7.71-13.35.48-.84-.81-1.59-1.3-.76-8.95,15.5-17.9,31-26.84,46.5l-7.71,13.35c-.48.84.81,1.59,1.3.76h0Z"/>
        </g>
        <g>
          <path d="M52.08,11.58c12.76,12.55,25.52,25.09,38.28,37.64l10.99,10.8c.69.68,1.75-.38,1.06-1.06-12.76-12.55-25.52-25.09-38.28-37.64l-10.99-10.8c-.69-.68-1.75.38-1.06,1.06h0Z"/>
          <path d="M43.61,27.29c17.32,4.51,34.64,9.02,51.96,13.53l14.91,3.88c.93.24,1.33-1.2.4-1.45-17.32-4.51-34.64-9.02-51.96-13.53l-14.91-3.88c-.93-.24-1.33,1.2-.4,1.45h0Z"/>
          <path d="M53.56,60.44c12.55-12.76,25.09-25.52,37.64-38.28l10.8-10.99c.68-.69-.38-1.75-1.06-1.06-12.55,12.76-25.09,25.52-37.64,38.28l-10.8,10.99c-.68.69.38,1.75,1.06,1.06h0Z"/>
          <path d="M44.14,45.18c17.25-4.75,34.51-9.51,51.76-14.26l14.86-4.09c.93-.26.53-1.7-.4-1.45-17.25,4.75-34.51,9.51-51.76,14.26l-14.86,4.09c-.93.26-.53,1.7.4,1.45h0Z"/>
          <path d="M69.31,68.92c4.49-17.33,8.97-34.65,13.46-51.98l3.86-14.92c.24-.94-1.2-1.33-1.45-.4l-13.46,51.98c-1.29,4.97-2.58,9.95-3.86,14.92-.24.94,1.2,1.33,1.45.4h0Z"/>
          <path d="M87.2,68.37c-4.78-17.25-9.56-34.49-14.33-51.74-1.37-4.95-2.74-9.9-4.11-14.85-.26-.93-1.7-.53-1.45.4,4.78,17.25,9.56,34.49,14.33,51.74,1.37,4.95,2.74,9.9,4.11,14.85.26.93,1.7.53,1.45-.4h0Z"/>
        </g>
        <g>
          <path d="M55.72,8.13c10.82,14.26,21.64,28.51,32.45,42.77l9.32,12.28c.58.76,1.88.01,1.3-.76-10.82-14.26-21.64-28.51-32.45-42.77l-9.32-12.28c-.58-.76-1.88-.01-1.3.76h0Z"/>
          <path d="M45.04,22.48c16.49,6.96,32.97,13.92,49.46,20.88,4.73,2,9.46,4,14.2,5.99.88.37,1.64-.92.76-1.3-16.49-6.96-32.97-13.92-49.46-20.88-4.73-2-9.46-4-14.2-5.99-.88-.37-1.64.92-.76,1.3h0Z"/>
          <path d="M50.1,56.81c14.26-10.82,28.51-21.64,42.77-32.45,4.09-3.11,8.18-6.21,12.28-9.32.76-.58.01-1.88-.76-1.3-14.26,10.82-28.51,21.64-42.77,32.45l-12.28,9.32c-.76.58-.01,1.88.76,1.3h0Z"/>
          <path d="M42.97,40.3c17.76-2.22,35.52-4.43,53.28-6.65l15.29-1.91c.95-.12.96-1.62,0-1.5l-53.28,6.65-15.29,1.91c-.95.12-.96,1.62,0,1.5h0Z"/>
          <path d="M64.58,67.32c6.94-16.5,13.88-32.99,20.81-49.49l5.97-14.21c.37-.89-1.08-1.28-1.45-.4-6.94,16.5-13.88,32.99-20.81,49.49l-5.97,14.21c-.37.89,1.08,1.28,1.45.4h0Z"/>
          <path d="M82.32,69.55c-2.24-17.76-4.48-35.51-6.72-53.27-.64-5.1-1.29-10.19-1.93-15.29-.12-.94-1.62-.96-1.5,0,2.24,17.76,4.48,35.51,6.72,53.27l1.93,15.29c.12.94,1.62.96,1.5,0h0Z"/>
        </g>
        <g>
          <path d="M63.15,3.83c6.97,16.48,13.94,32.97,20.9,49.45,2,4.73,4,9.46,6,14.19.37.89,1.67.12,1.3-.76-6.97-16.48-13.94-32.97-20.9-49.45-2-4.73-4-9.46-6-14.19-.37-.89-1.67-.12-1.3.76h0Z"/>
          <path d="M49.34,15.05c14.26,10.81,28.52,21.62,42.79,32.43,4.09,3.1,8.19,6.21,12.28,9.31.77.58,1.52-.72.76-1.3-14.26-10.81-28.52-21.62-42.79-32.43-4.09-3.1-8.19-6.21-12.28-9.31-.77-.58-1.52.72-.76,1.3h0Z"/>
          <path d="M45.8,49.37c16.48-6.97,32.97-13.94,49.45-20.9l14.19-6c.89-.37.12-1.67-.76-1.3-16.48,6.97-32.97,13.94-49.45,20.9l-14.19,6c-.89.37-.12,1.67.76,1.3h0Z"/>
          <path d="M42.97,31.72c17.76,2.23,35.51,4.46,53.27,6.69l15.29,1.92c.96.12.95-1.38,0-1.5-17.76-2.23-35.51-4.46-53.27-6.69l-15.29-1.92c-.96-.12-.95,1.38,0,1.5h0Z"/>
          <path d="M57.06,63.21c10.79-14.28,21.58-28.55,32.37-42.83l9.29-12.29c.58-.77-.72-1.52-1.3-.76-10.79,14.28-21.58,28.55-32.37,42.83-3.1,4.1-6.2,8.2-9.29,12.29-.58.77.72,1.52,1.3.76h0Z"/>
          <path d="M73.74,69.56c2.21-17.76,4.42-35.52,6.62-53.28l1.9-15.29c.12-.96-1.38-.95-1.5,0-2.21,17.76-4.42,35.52-6.62,53.28l-1.9,15.29c-.12.96,1.38.95,1.5,0h0Z"/>
        </g>
      </g>
      <g>
        <g>
          <path d="M160.45,18c0,17.9,0,35.79,0,53.69v15.41c0,.97,1.5.97,1.5,0,0-17.9,0-35.79,0-53.69v-15.41c0-.97-1.5-.97-1.5,0h0Z"/>
          <path d="M143.32,22.98c8.93,15.51,17.85,31.02,26.78,46.53l7.69,13.36c.48.84,1.78.08,1.3-.76-8.93-15.51-17.85-31.02-26.78-46.53-2.56-4.45-5.12-8.9-7.69-13.36-.48-.84-1.78-.08-1.3.76h0Z"/>
          <path d="M126.65,53.3c17.9,0,35.79,0,53.69,0h15.41c.97,0,.97-1.5,0-1.5-17.9,0-35.79,0-53.69,0h-15.41c-.97,0-.97,1.5,0,1.5h0Z"/>
          <path d="M130.93,35.88c15.49,8.97,30.97,17.94,46.46,26.91l13.34,7.72c.84.48,1.59-.81.76-1.3-15.49-8.97-30.97-17.94-46.46-26.91l-13.34-7.72c-.84-.48-1.59.81-.76,1.3h0Z"/>
          <path d="M131.66,70.47c15.5-8.95,31-17.9,46.5-26.84l13.35-7.71c.84-.48.08-1.78-.76-1.3-15.5,8.95-31,17.9-46.5,26.84-4.45,2.57-8.9,5.14-13.35,7.71-.84.48-.08,1.78.76,1.3h0Z"/>
          <path d="M144.57,82.85c8.95-15.5,17.9-31,26.84-46.5,2.57-4.45,5.14-8.9,7.71-13.35.48-.84-.81-1.59-1.3-.76-8.95,15.5-17.9,31-26.84,46.5-2.57,4.45-5.14,8.9-7.71,13.35-.48.84.81,1.59,1.3.76h0Z"/>
        </g>
        <g>
          <path d="M136.04,28.86c12.76,12.55,25.52,25.09,38.28,37.64l10.99,10.8c.69.68,1.75-.38,1.06-1.06-12.76-12.55-25.52-25.09-38.28-37.64l-10.99-10.8c-.69-.68-1.75.38-1.06,1.06h0Z"/>
          <path d="M127.57,44.57c17.32,4.51,34.64,9.02,51.96,13.53l14.91,3.88c.93.24,1.33-1.2.4-1.45-17.32-4.51-34.64-9.02-51.96-13.53l-14.91-3.88c-.93-.24-1.33,1.2-.4,1.45h0Z"/>
          <path d="M137.51,77.72c12.55-12.76,25.09-25.52,37.64-38.28l10.8-10.99c.68-.69-.38-1.75-1.06-1.06-12.55,12.76-25.09,25.52-37.64,38.28l-10.8,10.99c-.68.69.38,1.75,1.06,1.06h0Z"/>
          <path d="M128.09,62.45c17.25-4.75,34.51-9.51,51.76-14.26l14.86-4.09c.93-.26.53-1.7-.4-1.45-17.25,4.75-34.51,9.51-51.76,14.26l-14.86,4.09c-.93.26-.53,1.7.4,1.45h0Z"/>
          <path d="M153.26,86.2c4.49-17.33,8.97-34.65,13.46-51.98l3.86-14.92c.24-.94-1.2-1.33-1.45-.4l-13.46,51.98c-1.29,4.97-2.58,9.95-3.86,14.92-.24.94,1.2,1.33,1.45.4h0Z"/>
          <path d="M171.15,85.65c-4.78-17.25-9.56-34.49-14.33-51.74-1.37-4.95-2.74-9.9-4.11-14.85-.26-.93-1.7-.53-1.45.4,4.78,17.25,9.56,34.49,14.33,51.74,1.37,4.95,2.74,9.9,4.11,14.85.26.93,1.7.53,1.45-.4h0Z"/>
        </g>
        <g>
          <path d="M139.67,25.4c10.82,14.26,21.64,28.51,32.45,42.77l9.32,12.28c.58.76,1.88.01,1.3-.76-10.82-14.26-21.64-28.51-32.45-42.77l-9.32-12.28c-.58-.76-1.88-.01-1.3.76h0Z"/>
          <path d="M128.99,39.76c16.49,6.96,32.97,13.92,49.46,20.88,4.73,2,9.46,4,14.2,5.99.88.37,1.64-.92.76-1.3-16.49-6.96-32.97-13.92-49.46-20.88-4.73-2-9.46-4-14.2-5.99-.88-.37-1.64.92-.76,1.3h0Z"/>
          <path d="M134.06,74.08c14.26-10.82,28.51-21.64,42.77-32.45l12.28-9.32c.76-.58.01-1.88-.76-1.3-14.26,10.82-28.51,21.64-42.77,32.45-4.09,3.11-8.18,6.21-12.28,9.32-.76.58-.01,1.88.76,1.3h0Z"/>
          <path d="M126.92,57.58c17.76-2.22,35.52-4.43,53.28-6.65l15.29-1.91c.95-.12.96-1.62,0-1.5l-53.28,6.65-15.29,1.91c-.95.12-.96,1.62,0,1.5h0Z"/>
          <path d="M148.53,84.6c6.94-16.5,13.88-32.99,20.81-49.49l5.97-14.21c.37-.89-1.08-1.28-1.45-.4-6.94,16.5-13.88,32.99-20.81,49.49l-5.97,14.21c-.37.89,1.08,1.28,1.45.4h0Z"/>
          <path d="M166.28,86.83c-2.24-17.76-4.48-35.51-6.72-53.27-.64-5.1-1.29-10.19-1.93-15.29-.12-.94-1.62-.96-1.5,0,2.24,17.76,4.48,35.51,6.72,53.27.64,5.1,1.29,10.19,1.93,15.29.12.94,1.62.96,1.5,0h0Z"/>
        </g>
        <g>
          <path d="M147.1,21.1c6.97,16.48,13.94,32.97,20.9,49.45,2,4.73,4,9.46,6,14.19.37.89,1.67.12,1.3-.76-6.97-16.48-13.94-32.97-20.9-49.45l-6-14.19c-.37-.89-1.67-.12-1.3.76h0Z"/>
          <path d="M133.29,32.33c14.26,10.81,28.52,21.62,42.79,32.43,4.09,3.1,8.19,6.21,12.28,9.31.77.58,1.52-.72.76-1.3-14.26-10.81-28.52-21.62-42.79-32.43-4.09-3.1-8.19-6.21-12.28-9.31-.77-.58-1.52.72-.76,1.3h0Z"/>
          <path d="M129.76,66.65c16.48-6.97,32.97-13.94,49.45-20.9l14.19-6c.89-.37.12-1.67-.76-1.3-16.48,6.97-32.97,13.94-49.45,20.9l-14.19,6c-.89.37-.12,1.67.76,1.3h0Z"/>
          <path d="M126.92,48.99c17.76,2.23,35.51,4.46,53.27,6.69l15.29,1.92c.96.12.95-1.38,0-1.5-17.76-2.23-35.51-4.46-53.27-6.69l-15.29-1.92c-.96-.12-.95,1.38,0,1.5h0Z"/>
          <path d="M141.02,80.49c10.79-14.28,21.58-28.55,32.37-42.83,3.1-4.1,6.2-8.2,9.29-12.29.58-.77-.72-1.52-1.3-.76-10.79,14.28-21.58,28.55-32.37,42.83-3.1,4.1-6.2,8.2-9.29,12.29-.58.77.72,1.52,1.3.76h0Z"/>
          <path d="M157.69,86.84c2.21-17.76,4.42-35.52,6.62-53.28l1.9-15.29c.12-.96-1.38-.95-1.5,0-2.21,17.76-4.42,35.52-6.62,53.28l-1.9,15.29c-.12.96,1.38.95,1.5,0h0Z"/>
        </g>
      </g>
      <g>
        <g>
          <path d="M267.36,10.67c0,17.9,0,35.79,0,53.69v15.41c0,.97,1.5.97,1.5,0,0-17.9,0-35.79,0-53.69v-15.41c0-.97-1.5-.97-1.5,0h0Z"/>
          <path d="M250.23,15.65c8.93,15.51,17.85,31.02,26.78,46.53l7.69,13.36c.48.84,1.78.08,1.3-.76-8.93-15.51-17.85-31.02-26.78-46.53-2.56-4.45-5.12-8.9-7.69-13.36-.48-.84-1.78-.08-1.3.76h0Z"/>
          <path d="M233.56,45.97c17.9,0,35.79,0,53.69,0h15.41c.97,0,.97-1.5,0-1.5-17.9,0-35.79,0-53.69,0h-15.41c-.97,0-.97,1.5,0,1.5h0Z"/>
          <path d="M237.84,28.55c15.49,8.97,30.97,17.94,46.46,26.91l13.34,7.72c.84.48,1.59-.81.76-1.3-15.49-8.97-30.97-17.94-46.46-26.91l-13.34-7.72c-.84-.48-1.59.81-.76,1.3h0Z"/>
          <path d="M238.57,63.14c15.5-8.95,31-17.9,46.5-26.84l13.35-7.71c.84-.48.08-1.78-.76-1.3-15.5,8.95-31,17.9-46.5,26.84l-13.35,7.71c-.84.48-.08,1.78.76,1.3h0Z"/>
          <path d="M251.49,75.52c8.95-15.5,17.9-31,26.84-46.5,2.57-4.45,5.14-8.9,7.71-13.35.48-.84-.81-1.59-1.3-.76l-26.84,46.5-7.71,13.35c-.48.84.81,1.59,1.3.76h0Z"/>
        </g>
        <g>
          <path d="M242.95,21.53c12.76,12.55,25.52,25.09,38.28,37.64l10.99,10.8c.69.68,1.75-.38,1.06-1.06-12.76-12.55-25.52-25.09-38.28-37.64l-10.99-10.8c-.69-.68-1.75.38-1.06,1.06h0Z"/>
          <path d="M234.48,37.24c17.32,4.51,34.64,9.02,51.96,13.53l14.91,3.88c.93.24,1.33-1.2.4-1.45-17.32-4.51-34.64-9.02-51.96-13.53l-14.91-3.88c-.93-.24-1.33,1.2-.4,1.45h0Z"/>
          <path d="M244.42,70.38c12.55-12.76,25.09-25.52,37.64-38.28l10.8-10.99c.68-.69-.38-1.75-1.06-1.06-12.55,12.76-25.09,25.52-37.64,38.28l-10.8,10.99c-.68.69.38,1.75,1.06,1.06h0Z"/>
          <path d="M235.01,55.12c17.25-4.75,34.51-9.51,51.76-14.26l14.86-4.09c.93-.26.53-1.7-.4-1.45-17.25,4.75-34.51,9.51-51.76,14.26l-14.86,4.09c-.93.26-.53,1.7.4,1.45h0Z"/>
          <path d="M260.18,78.87c4.49-17.33,8.97-34.65,13.46-51.98l3.86-14.92c.24-.94-1.2-1.33-1.45-.4-4.49,17.33-8.97,34.65-13.46,51.98-1.29,4.97-2.58,9.95-3.86,14.92-.24.94,1.2,1.33,1.45.4h0Z"/>
          <path d="M278.06,78.32c-4.78-17.25-9.56-34.49-14.33-51.74-1.37-4.95-2.74-9.9-4.11-14.85-.26-.93-1.7-.53-1.45.4,4.78,17.25,9.56,34.49,14.33,51.74,1.37,4.95,2.74,9.9,4.11,14.85.26.93,1.7.53,1.45-.4h0Z"/>
        </g>
        <g>
          <path d="M246.58,18.07c10.82,14.26,21.64,28.51,32.45,42.77l9.32,12.28c.58.76,1.88.01,1.3-.76-10.82-14.26-21.64-28.51-32.45-42.77l-9.32-12.28c-.58-.76-1.88-.01-1.3.76h0Z"/>
          <path d="M235.91,32.43c16.49,6.96,32.97,13.92,49.46,20.88,4.73,2,9.46,4,14.2,5.99.88.37,1.64-.92.76-1.3-16.49-6.96-32.97-13.92-49.46-20.88-4.73-2-9.46-4-14.2-5.99-.88-.37-1.64.92-.76,1.3h0Z"/>
          <path d="M240.97,66.75c14.26-10.82,28.51-21.64,42.77-32.45l12.28-9.32c.76-.58.01-1.88-.76-1.3-14.26,10.82-28.51,21.64-42.77,32.45l-12.28,9.32c-.76.58-.01,1.88.76,1.3h0Z"/>
          <path d="M233.83,50.25c17.76-2.22,35.52-4.43,53.28-6.65l15.29-1.91c.95-.12.96-1.62,0-1.5l-53.28,6.65-15.29,1.91c-.95.12-.96,1.62,0,1.5h0Z"/>
          <path d="M255.44,77.27c6.94-16.5,13.88-32.99,20.81-49.49l5.97-14.21c.37-.89-1.08-1.28-1.45-.4-6.94,16.5-13.88,32.99-20.81,49.49l-5.97,14.21c-.37.89,1.08,1.28,1.45.4h0Z"/>
          <path d="M273.19,79.5c-2.24-17.76-4.48-35.51-6.72-53.27l-1.93-15.29c-.12-.94-1.62-.96-1.5,0,2.24,17.76,4.48,35.51,6.72,53.27l1.93,15.29c.12.94,1.62.96,1.5,0h0Z"/>
        </g>
        <g>
          <path d="M254.02,13.77c6.97,16.48,13.94,32.97,20.9,49.45,2,4.73,4,9.46,6,14.19.37.89,1.67.12,1.3-.76-6.97-16.48-13.94-32.97-20.9-49.45-2-4.73-4-9.46-6-14.19-.37-.89-1.67-.12-1.3.76h0Z"/>
          <path d="M240.2,25c14.26,10.81,28.52,21.62,42.79,32.43,4.09,3.1,8.19,6.21,12.28,9.31.77.58,1.52-.72.76-1.3-14.26-10.81-28.52-21.62-42.79-32.43-4.09-3.1-8.19-6.21-12.28-9.31-.77-.58-1.52.72-.76,1.3h0Z"/>
          <path d="M236.67,59.32c16.48-6.97,32.97-13.94,49.45-20.9l14.19-6c.89-.37.12-1.67-.76-1.3-16.48,6.97-32.97,13.94-49.45,20.9l-14.19,6c-.89.37-.12,1.67.76,1.3h0Z"/>
          <path d="M233.83,41.66c17.76,2.23,35.51,4.46,53.27,6.69l15.29,1.92c.96.12.95-1.38,0-1.5-17.76-2.23-35.51-4.46-53.27-6.69l-15.29-1.92c-.96-.12-.95,1.38,0,1.5h0Z"/>
          <path d="M247.93,73.16c10.79-14.28,21.58-28.55,32.37-42.83,3.1-4.1,6.2-8.2,9.29-12.29.58-.77-.72-1.52-1.3-.76-10.79,14.28-21.58,28.55-32.37,42.83-3.1,4.1-6.2,8.2-9.29,12.29-.58.77.72,1.52,1.3.76h0Z"/>
          <path d="M264.6,79.5c2.21-17.76,4.42-35.52,6.62-53.28l1.9-15.29c.12-.96-1.38-.95-1.5,0-2.21,17.76-4.42,35.52-6.62,53.28l-1.9,15.29c-.12.96,1.38.95,1.5,0h0Z"/>
        </g>
      </g>
      <g>
        <g>
          <path d="M288.25,79.61c0,17.9,0,35.79,0,53.69v15.41c0,.97,1.5.97,1.5,0,0-17.9,0-35.79,0-53.69v-15.41c0-.97-1.5-.97-1.5,0h0Z"/>
          <path d="M271.12,84.59c8.93,15.51,17.85,31.02,26.78,46.53l7.69,13.36c.48.84,1.78.08,1.3-.76-8.93-15.51-17.85-31.02-26.78-46.53-2.56-4.45-5.12-8.9-7.69-13.36-.48-.84-1.78-.08-1.3.76h0Z"/>
          <path d="M254.45,114.91c17.9,0,35.79,0,53.69,0h15.41c.97,0,.97-1.5,0-1.5-17.9,0-35.79,0-53.69,0h-15.41c-.97,0-.97,1.5,0,1.5h0Z"/>
          <path d="M258.72,97.49c15.49,8.97,30.97,17.94,46.46,26.91l13.34,7.72c.84.48,1.59-.81.76-1.3-15.49-8.97-30.97-17.94-46.46-26.91l-13.34-7.72c-.84-.48-1.59.81-.76,1.3h0Z"/>
          <path d="M259.46,132.08c15.5-8.95,31-17.9,46.5-26.84l13.35-7.71c.84-.48.08-1.78-.76-1.3-15.5,8.95-31,17.9-46.5,26.84l-13.35,7.71c-.84.48-.08,1.78.76,1.3h0Z"/>
          <path d="M272.37,144.46c8.95-15.5,17.9-31,26.84-46.5,2.57-4.45,5.14-8.9,7.71-13.35.48-.84-.81-1.59-1.3-.76-8.95,15.5-17.9,31-26.84,46.5-2.57,4.45-5.14,8.9-7.71,13.35-.48.84.81,1.59,1.3.76h0Z"/>
        </g>
        <g>
          <path d="M263.83,90.47c12.76,12.55,25.52,25.09,38.28,37.64l10.99,10.8c.69.68,1.75-.38,1.06-1.06-12.76-12.55-25.52-25.09-38.28-37.64l-10.99-10.8c-.69-.68-1.75.38-1.06,1.06h0Z"/>
          <path d="M255.36,106.18c17.32,4.51,34.64,9.02,51.96,13.53l14.91,3.88c.93.24,1.33-1.2.4-1.45-17.32-4.51-34.64-9.02-51.96-13.53l-14.91-3.88c-.93-.24-1.33,1.2-.4,1.45h0Z"/>
          <path d="M265.31,139.33c12.55-12.76,25.09-25.52,37.64-38.28l10.8-10.99c.68-.69-.38-1.75-1.06-1.06-12.55,12.76-25.09,25.52-37.64,38.28l-10.8,10.99c-.68.69.38,1.75,1.06,1.06h0Z"/>
          <path d="M255.89,124.06c17.25-4.75,34.51-9.51,51.76-14.26l14.86-4.09c.93-.26.53-1.7-.4-1.45-17.25,4.75-34.51,9.51-51.76,14.26l-14.86,4.09c-.93.26-.53,1.7.4,1.45h0Z"/>
          <path d="M281.06,147.81c4.49-17.33,8.97-34.65,13.46-51.98l3.86-14.92c.24-.94-1.2-1.33-1.45-.4-4.49,17.33-8.97,34.65-13.46,51.98-1.29,4.97-2.58,9.95-3.86,14.92-.24.94,1.2,1.33,1.45.4h0Z"/>
          <path d="M298.95,147.26c-4.78-17.25-9.56-34.49-14.33-51.74-1.37-4.95-2.74-9.9-4.11-14.85-.26-.93-1.7-.53-1.45.4,4.78,17.25,9.56,34.49,14.33,51.74,1.37,4.95,2.74,9.9,4.11,14.85.26.93,1.7.53,1.45-.4h0Z"/>
        </g>
        <g>
          <path d="M267.47,87.01c10.82,14.26,21.64,28.51,32.45,42.77l9.32,12.28c.58.76,1.88.01,1.3-.76-10.82-14.26-21.64-28.51-32.45-42.77l-9.32-12.28c-.58-.76-1.88-.01-1.3.76h0Z"/>
          <path d="M256.79,101.37c16.49,6.96,32.97,13.92,49.46,20.88,4.73,2,9.46,4,14.2,5.99.88.37,1.64-.92.76-1.3-16.49-6.96-32.97-13.92-49.46-20.88-4.73-2-9.46-4-14.2-5.99-.88-.37-1.64.92-.76,1.3h0Z"/>
          <path d="M261.85,135.69c14.26-10.82,28.51-21.64,42.77-32.45l12.28-9.32c.76-.58.01-1.88-.76-1.3-14.26,10.82-28.51,21.64-42.77,32.45-4.09,3.11-8.18,6.21-12.28,9.32-.76.58-.01,1.88.76,1.3h0Z"/>
          <path d="M254.71,119.19c17.76-2.22,35.52-4.43,53.28-6.65l15.29-1.91c.95-.12.96-1.62,0-1.5l-53.28,6.65-15.29,1.91c-.95.12-.96,1.62,0,1.5h0Z"/>
          <path d="M276.33,146.21c6.94-16.5,13.88-32.99,20.81-49.49l5.97-14.21c.37-.89-1.08-1.28-1.45-.4-6.94,16.5-13.88,32.99-20.81,49.49l-5.97,14.21c-.37.89,1.08,1.28,1.45.4h0Z"/>
          <path d="M294.07,148.44c-2.24-17.76-4.48-35.51-6.72-53.27-.64-5.1-1.29-10.19-1.93-15.29-.12-.94-1.62-.96-1.5,0,2.24,17.76,4.48,35.51,6.72,53.27.64,5.1,1.29,10.19,1.93,15.29.12.94,1.62.96,1.5,0h0Z"/>
        </g>
        <g>
          <path d="M274.9,82.71c6.97,16.48,13.94,32.97,20.9,49.45,2,4.73,4,9.46,6,14.19.37.89,1.67.12,1.3-.76-6.97-16.48-13.94-32.97-20.9-49.45l-6-14.19c-.37-.89-1.67-.12-1.3.76h0Z"/>
          <path d="M261.09,93.94c14.26,10.81,28.52,21.62,42.79,32.43,4.09,3.1,8.19,6.21,12.28,9.31.77.58,1.52-.72.76-1.3-14.26-10.81-28.52-21.62-42.79-32.43l-12.28-9.31c-.77-.58-1.52.72-.76,1.3h0Z"/>
          <path d="M257.55,128.26c16.48-6.97,32.97-13.94,49.45-20.9l14.19-6c.89-.37.12-1.67-.76-1.3-16.48,6.97-32.97,13.94-49.45,20.9l-14.19,6c-.89.37-.12,1.67.76,1.3h0Z"/>
          <path d="M254.72,110.6c17.76,2.23,35.51,4.46,53.27,6.69l15.29,1.92c.96.12.95-1.38,0-1.5-17.76-2.23-35.51-4.46-53.27-6.69l-15.29-1.92c-.96-.12-.95,1.38,0,1.5h0Z"/>
          <path d="M268.81,142.1c10.79-14.28,21.58-28.55,32.37-42.83,3.1-4.1,6.2-8.2,9.29-12.29.58-.77-.72-1.52-1.3-.76-10.79,14.28-21.58,28.55-32.37,42.83-3.1,4.1-6.2,8.2-9.29,12.29-.58.77.72,1.52,1.3.76h0Z"/>
          <path d="M285.49,148.45c2.21-17.76,4.42-35.52,6.62-53.28l1.9-15.29c.12-.96-1.38-.95-1.5,0-2.21,17.76-4.42,35.52-6.62,53.28l-1.9,15.29c-.12.96,1.38.95,1.5,0h0Z"/>
        </g>
      </g>
      <g>
        <g>
          <path d="M361.12,42.22c0,17.9,0,35.79,0,53.69v15.41c0,.97,1.5.97,1.5,0,0-17.9,0-35.79,0-53.69v-15.41c0-.97-1.5-.97-1.5,0h0Z"/>
          <path d="M343.99,47.21c8.93,15.51,17.85,31.02,26.78,46.53l7.69,13.36c.48.84,1.78.08,1.3-.76-8.93-15.51-17.85-31.02-26.78-46.53l-7.69-13.36c-.48-.84-1.78-.08-1.3.76h0Z"/>
          <path d="M327.32,77.52c17.9,0,35.79,0,53.69,0h15.41c.97,0,.97-1.5,0-1.5-17.9,0-35.79,0-53.69,0h-15.41c-.97,0-.97,1.5,0,1.5h0Z"/>
          <path d="M331.6,60.11c15.49,8.97,30.97,17.94,46.46,26.91l13.34,7.72c.84.48,1.59-.81.76-1.3-15.49-8.97-30.97-17.94-46.46-26.91l-13.34-7.72c-.84-.48-1.59.81-.76,1.3h0Z"/>
          <path d="M332.33,94.7c15.5-8.95,31-17.9,46.5-26.84l13.35-7.71c.84-.48.08-1.78-.76-1.3-15.5,8.95-31,17.9-46.5,26.84l-13.35,7.71c-.84.48-.08,1.78.76,1.3h0Z"/>
          <path d="M345.25,107.07c8.95-15.5,17.9-31,26.84-46.5,2.57-4.45,5.14-8.9,7.71-13.35.48-.84-.81-1.59-1.3-.76-8.95,15.5-17.9,31-26.84,46.5l-7.71,13.35c-.48.84.81,1.59,1.3.76h0Z"/>
        </g>
        <g>
          <path d="M336.71,53.08c12.76,12.55,25.52,25.09,38.28,37.64l10.99,10.8c.69.68,1.75-.38,1.06-1.06-12.76-12.55-25.52-25.09-38.28-37.64l-10.99-10.8c-.69-.68-1.75.38-1.06,1.06h0Z"/>
          <path d="M328.24,68.79c17.32,4.51,34.64,9.02,51.96,13.53l14.91,3.88c.93.24,1.33-1.2.4-1.45-17.32-4.51-34.64-9.02-51.96-13.53l-14.91-3.88c-.93-.24-1.33,1.2-.4,1.45h0Z"/>
          <path d="M338.18,101.94c12.55-12.76,25.09-25.52,37.64-38.28l10.8-10.99c.68-.69-.38-1.75-1.06-1.06-12.55,12.76-25.09,25.52-37.64,38.28l-10.8,10.99c-.68.69.38,1.75,1.06,1.06h0Z"/>
          <path d="M328.76,86.67c17.25-4.75,34.51-9.51,51.76-14.26,4.95-1.36,9.9-2.73,14.86-4.09.93-.26.53-1.7-.4-1.45-17.25,4.75-34.51,9.51-51.76,14.26l-14.86,4.09c-.93.26-.53,1.7.4,1.45h0Z"/>
          <path d="M353.94,110.42c4.49-17.33,8.97-34.65,13.46-51.98l3.86-14.92c.24-.94-1.2-1.33-1.45-.4-4.49,17.33-8.97,34.65-13.46,51.98-1.29,4.97-2.58,9.95-3.86,14.92-.24.94,1.2,1.33,1.45.4h0Z"/>
          <path d="M371.82,109.87c-4.78-17.25-9.56-34.49-14.33-51.74-1.37-4.95-2.74-9.9-4.11-14.85-.26-.93-1.7-.53-1.45.4,4.78,17.25,9.56,34.49,14.33,51.74,1.37,4.95,2.74,9.9,4.11,14.85.26.93,1.7.53,1.45-.4h0Z"/>
        </g>
        <g>
          <path d="M340.34,49.63c10.82,14.26,21.64,28.51,32.45,42.77l9.32,12.28c.58.76,1.88.01,1.3-.76-10.82-14.26-21.64-28.51-32.45-42.77l-9.32-12.28c-.58-.76-1.88-.01-1.3.76h0Z"/>
          <path d="M329.66,63.98c16.49,6.96,32.97,13.92,49.46,20.88,4.73,2,9.46,4,14.2,5.99.88.37,1.64-.92.76-1.3-16.49-6.96-32.97-13.92-49.46-20.88-4.73-2-9.46-4-14.2-5.99-.88-.37-1.64.92-.76,1.3h0Z"/>
          <path d="M334.73,98.3c14.26-10.82,28.51-21.64,42.77-32.45l12.28-9.32c.76-.58.01-1.88-.76-1.3-14.26,10.82-28.51,21.64-42.77,32.45l-12.28,9.32c-.76.58-.01,1.88.76,1.3h0Z"/>
          <path d="M327.59,81.8c17.76-2.22,35.52-4.43,53.28-6.65l15.29-1.91c.95-.12.96-1.62,0-1.5l-53.28,6.65-15.29,1.91c-.95.12-.96,1.62,0,1.5h0Z"/>
          <path d="M349.2,108.82c6.94-16.5,13.88-32.99,20.81-49.49l5.97-14.21c.37-.89-1.08-1.28-1.45-.4-6.94,16.5-13.88,32.99-20.81,49.49l-5.97,14.21c-.37.89,1.08,1.28,1.45.4h0Z"/>
          <path d="M366.95,111.05c-2.24-17.76-4.48-35.51-6.72-53.27-.64-5.1-1.29-10.19-1.93-15.29-.12-.94-1.62-.96-1.5,0,2.24,17.76,4.48,35.51,6.72,53.27l1.93,15.29c.12.94,1.62.96,1.5,0h0Z"/>
        </g>
        <g>
          <path d="M347.77,45.33c6.97,16.48,13.94,32.97,20.9,49.45,2,4.73,4,9.46,6,14.19.37.89,1.67.12,1.3-.76-6.97-16.48-13.94-32.97-20.9-49.45-2-4.73-4-9.46-6-14.19-.37-.89-1.67-.12-1.3.76h0Z"/>
          <path d="M333.96,56.55c14.26,10.81,28.52,21.62,42.79,32.43,4.09,3.1,8.19,6.21,12.28,9.31.77.58,1.52-.72.76-1.3-14.26-10.81-28.52-21.62-42.79-32.43-4.09-3.1-8.19-6.21-12.28-9.31-.77-.58-1.52.72-.76,1.3h0Z"/>
          <path d="M330.43,90.87c16.48-6.97,32.97-13.94,49.45-20.9l14.19-6c.89-.37.12-1.67-.76-1.3-16.48,6.97-32.97,13.94-49.45,20.9l-14.19,6c-.89.37-.12,1.67.76,1.3h0Z"/>
          <path d="M327.59,73.21c17.76,2.23,35.51,4.46,53.27,6.69l15.29,1.92c.96.12.95-1.38,0-1.5-17.76-2.23-35.51-4.46-53.27-6.69l-15.29-1.92c-.96-.12-.95,1.38,0,1.5h0Z"/>
          <path d="M341.69,104.71c10.79-14.28,21.58-28.55,32.37-42.83l9.29-12.29c.58-.77-.72-1.52-1.3-.76-10.79,14.28-21.58,28.55-32.37,42.83-3.1,4.1-6.2,8.2-9.29,12.29-.58.77.72,1.52,1.3.76h0Z"/>
          <path d="M358.36,111.06c2.21-17.76,4.42-35.52,6.62-53.28l1.9-15.29c.12-.96-1.38-.95-1.5,0-2.21,17.76-4.42,35.52-6.62,53.28l-1.9,15.29c-.12.96,1.38.95,1.5,0h0Z"/>
        </g>
      </g>
      <g>
        <g>
          <path d="M514.88,114.16c0,17.9,0,35.79,0,53.69v15.41c0,.97,1.5.97,1.5,0,0-17.9,0-35.79,0-53.69v-15.41c0-.97-1.5-.97-1.5,0h0Z"/>
          <path d="M497.75,119.14c8.93,15.51,17.85,31.02,26.78,46.53,2.56,4.45,5.12,8.9,7.69,13.36.48.84,1.78.08,1.3-.76-8.93-15.51-17.85-31.02-26.78-46.53-2.56-4.45-5.12-8.9-7.69-13.36-.48-.84-1.78-.08-1.3.76h0Z"/>
          <path d="M481.08,149.46c17.9,0,35.79,0,53.69,0h15.41c.97,0,.97-1.5,0-1.5-17.9,0-35.79,0-53.69,0h-15.41c-.97,0-.97,1.5,0,1.5h0Z"/>
          <path d="M485.35,132.04c15.49,8.97,30.97,17.94,46.46,26.91l13.34,7.72c.84.48,1.59-.81.76-1.3-15.49-8.97-30.97-17.94-46.46-26.91l-13.34-7.72c-.84-.48-1.59.81-.76,1.3h0Z"/>
          <path d="M486.09,166.63c15.5-8.95,31-17.9,46.5-26.84l13.35-7.71c.84-.48.08-1.78-.76-1.3-15.5,8.95-31,17.9-46.5,26.84-4.45,2.57-8.9,5.14-13.35,7.71-.84.48-.08,1.78.76,1.3h0Z"/>
          <path d="M499,179.01c8.95-15.5,17.9-31,26.84-46.5l7.71-13.35c.48-.84-.81-1.59-1.3-.76-8.95,15.5-17.9,31-26.84,46.5l-7.71,13.35c-.48.84.81,1.59,1.3.76h0Z"/>
        </g>
        <g>
          <path d="M490.46,125.02c12.76,12.55,25.52,25.09,38.28,37.64,3.66,3.6,7.33,7.2,10.99,10.8.69.68,1.75-.38,1.06-1.06-12.76-12.55-25.52-25.09-38.28-37.64-3.66-3.6-7.33-7.2-10.99-10.8-.69-.68-1.75.38-1.06,1.06h0Z"/>
          <path d="M482,140.73c17.32,4.51,34.64,9.02,51.96,13.53l14.91,3.88c.93.24,1.33-1.2.4-1.45-17.32-4.51-34.64-9.02-51.96-13.53l-14.91-3.88c-.93-.24-1.33,1.2-.4,1.45h0Z"/>
          <path d="M491.94,173.88c12.55-12.76,25.09-25.52,37.64-38.28l10.8-10.99c.68-.69-.38-1.75-1.06-1.06-12.55,12.76-25.09,25.52-37.64,38.28l-10.8,10.99c-.68.69.38,1.75,1.06,1.06h0Z"/>
          <path d="M482.52,158.61c17.25-4.75,34.51-9.51,51.76-14.26,4.95-1.36,9.9-2.73,14.86-4.09.93-.26.53-1.7-.4-1.45-17.25,4.75-34.51,9.51-51.76,14.26l-14.86,4.09c-.93.26-.53,1.7.4,1.45h0Z"/>
          <path d="M507.69,182.36c4.49-17.33,8.97-34.65,13.46-51.98,1.29-4.97,2.58-9.95,3.86-14.92.24-.94-1.2-1.33-1.45-.4-4.49,17.33-8.97,34.65-13.46,51.98-1.29,4.97-2.58,9.95-3.86,14.92-.24.94,1.2,1.33,1.45.4h0Z"/>
          <path d="M525.58,181.81c-4.78-17.25-9.56-34.49-14.33-51.74-1.37-4.95-2.74-9.9-4.11-14.85-.26-.93-1.7-.53-1.45.4,4.78,17.25,9.56,34.49,14.33,51.74,1.37,4.95,2.74,9.9,4.11,14.85.26.93,1.7.53,1.45-.4h0Z"/>
        </g>
        <g>
          <path d="M494.1,121.56c10.82,14.26,21.64,28.51,32.45,42.77l9.32,12.28c.58.76,1.88.01,1.3-.76-10.82-14.26-21.64-28.51-32.45-42.77l-9.32-12.28c-.58-.76-1.88-.01-1.3.76h0Z"/>
          <path d="M483.42,135.92c16.49,6.96,32.97,13.92,49.46,20.88,4.73,2,9.46,4,14.2,5.99.88.37,1.64-.92.76-1.3-16.49-6.96-32.97-13.92-49.46-20.88-4.73-2-9.46-4-14.2-5.99-.88-.37-1.64.92-.76,1.3h0Z"/>
          <path d="M488.48,170.24c14.26-10.82,28.51-21.64,42.77-32.45,4.09-3.11,8.18-6.21,12.28-9.32.76-.58.01-1.88-.76-1.3-14.26,10.82-28.51,21.64-42.77,32.45-4.09,3.11-8.18,6.21-12.28,9.32-.76.58-.01,1.88.76,1.3h0Z"/>
          <path d="M481.35,153.74c17.76-2.22,35.52-4.43,53.28-6.65l15.29-1.91c.95-.12.96-1.62,0-1.5-17.76,2.22-35.52,4.43-53.28,6.65l-15.29,1.91c-.95.12-.96,1.62,0,1.5h0Z"/>
          <path d="M502.96,180.76c6.94-16.5,13.88-32.99,20.81-49.49,1.99-4.74,3.98-9.47,5.97-14.21.37-.89-1.08-1.28-1.45-.4-6.94,16.5-13.88,32.99-20.81,49.49-1.99,4.74-3.98,9.47-5.97,14.21-.37.89,1.08,1.28,1.45.4h0Z"/>
          <path d="M520.7,182.99c-2.24-17.76-4.48-35.51-6.72-53.27-.64-5.1-1.29-10.19-1.93-15.29-.12-.94-1.62-.96-1.5,0,2.24,17.76,4.48,35.51,6.72,53.27.64,5.1,1.29,10.19,1.93,15.29.12.94,1.62.96,1.5,0h0Z"/>
        </g>
        <g>
          <path d="M501.53,117.26c6.97,16.48,13.94,32.97,20.9,49.45,2,4.73,4,9.46,6,14.19.37.89,1.67.12,1.3-.76-6.97-16.48-13.94-32.97-20.9-49.45-2-4.73-4-9.46-6-14.19-.37-.89-1.67-.12-1.3.76h0Z"/>
          <path d="M487.72,128.49c14.26,10.81,28.52,21.62,42.79,32.43,4.09,3.1,8.19,6.21,12.28,9.31.77.58,1.52-.72.76-1.3-14.26-10.81-28.52-21.62-42.79-32.43-4.09-3.1-8.19-6.21-12.28-9.31-.77-.58-1.52.72-.76,1.3h0Z"/>
          <path d="M484.18,162.81c16.48-6.97,32.97-13.94,49.45-20.9,4.73-2,9.46-4,14.19-6,.89-.37.12-1.67-.76-1.3-16.48,6.97-32.97,13.94-49.45,20.9l-14.19,6c-.89.37-.12,1.67.76,1.3h0Z"/>
          <path d="M481.35,145.15c17.76,2.23,35.51,4.46,53.27,6.69,5.1.64,10.19,1.28,15.29,1.92.96.12.95-1.38,0-1.5-17.76-2.23-35.51-4.46-53.27-6.69l-15.29-1.92c-.96-.12-.95,1.38,0,1.5h0Z"/>
          <path d="M495.44,176.65c10.79-14.28,21.58-28.55,32.37-42.83,3.1-4.1,6.2-8.2,9.29-12.29.58-.77-.72-1.52-1.3-.76-10.79,14.28-21.58,28.55-32.37,42.83-3.1,4.1-6.2,8.2-9.29,12.29-.58.77.72,1.52,1.3.76h0Z"/>
          <path d="M512.12,183c2.21-17.76,4.42-35.52,6.62-53.28l1.9-15.29c.12-.96-1.38-.95-1.5,0-2.21,17.76-4.42,35.52-6.62,53.28l-1.9,15.29c-.12.96,1.38.95,1.5,0h0Z"/>
        </g>
      </g>
      <g>
        <g>
          <path d="M490.66,199.97c0,17.9,0,35.79,0,53.69,0,5.14,0,10.27,0,15.41,0,.97,1.5.97,1.5,0,0-17.9,0-35.79,0-53.69v-15.41c0-.97-1.5-.97-1.5,0h0Z"/>
          <path d="M473.52,204.95c8.93,15.51,17.85,31.02,26.78,46.53,2.56,4.45,5.12,8.9,7.69,13.36.48.84,1.78.08,1.3-.76-8.93-15.51-17.85-31.02-26.78-46.53-2.56-4.45-5.12-8.9-7.69-13.36-.48-.84-1.78-.08-1.3.76h0Z"/>
          <path d="M456.86,235.27c17.9,0,35.79,0,53.69,0h15.41c.97,0,.97-1.5,0-1.5-17.9,0-35.79,0-53.69,0h-15.41c-.97,0-.97,1.5,0,1.5h0Z"/>
          <path d="M461.13,217.85c15.49,8.97,30.97,17.94,46.46,26.91,4.45,2.57,8.89,5.15,13.34,7.72.84.48,1.59-.81.76-1.3-15.49-8.97-30.97-17.94-46.46-26.91l-13.34-7.72c-.84-.48-1.59.81-.76,1.3h0Z"/>
          <path d="M461.86,252.44c15.5-8.95,31-17.9,46.5-26.84,4.45-2.57,8.9-5.14,13.35-7.71.84-.48.08-1.78-.76-1.3-15.5,8.95-31,17.9-46.5,26.84l-13.35,7.71c-.84.48-.08,1.78.76,1.3h0Z"/>
          <path d="M474.78,264.82c8.95-15.5,17.9-31,26.84-46.5l7.71-13.35c.48-.84-.81-1.59-1.3-.76-8.95,15.5-17.9,31-26.84,46.5-2.57,4.45-5.14,8.9-7.71,13.35-.48.84.81,1.59,1.3.76h0Z"/>
        </g>
        <g>
          <path d="M466.24,210.83c12.76,12.55,25.52,25.09,38.28,37.64l10.99,10.8c.69.68,1.75-.38,1.06-1.06-12.76-12.55-25.52-25.09-38.28-37.64l-10.99-10.8c-.69-.68-1.75.38-1.06,1.06h0Z"/>
          <path d="M457.77,226.54c17.32,4.51,34.64,9.02,51.96,13.53l14.91,3.88c.93.24,1.33-1.2.4-1.45-17.32-4.51-34.64-9.02-51.96-13.53-4.97-1.29-9.94-2.59-14.91-3.88-.93-.24-1.33,1.2-.4,1.45h0Z"/>
          <path d="M467.71,259.68c12.55-12.76,25.09-25.52,37.64-38.28,3.6-3.66,7.2-7.33,10.8-10.99.68-.69-.38-1.75-1.06-1.06-12.55,12.76-25.09,25.52-37.64,38.28l-10.8,10.99c-.68.69.38,1.75,1.06,1.06h0Z"/>
          <path d="M458.3,244.42c17.25-4.75,34.51-9.51,51.76-14.26,4.95-1.36,9.9-2.73,14.86-4.09.93-.26.53-1.7-.4-1.45-17.25,4.75-34.51,9.51-51.76,14.26l-14.86,4.09c-.93.26-.53,1.7.4,1.45h0Z"/>
          <path d="M483.47,268.17c4.49-17.33,8.97-34.65,13.46-51.98,1.29-4.97,2.58-9.95,3.86-14.92.24-.94-1.2-1.33-1.45-.4-4.49,17.33-8.97,34.65-13.46,51.98-1.29,4.97-2.58,9.95-3.86,14.92-.24.94,1.2,1.33,1.45.4h0Z"/>
          <path d="M501.35,267.62c-4.78-17.25-9.56-34.49-14.33-51.74-1.37-4.95-2.74-9.9-4.11-14.85-.26-.93-1.7-.53-1.45.4,4.78,17.25,9.56,34.49,14.33,51.74,1.37,4.95,2.74,9.9,4.11,14.85.26.93,1.7.53,1.45-.4h0Z"/>
        </g>
        <g>
          <path d="M469.87,207.37c10.82,14.26,21.64,28.51,32.45,42.77l9.32,12.28c.58.76,1.88.01,1.3-.76-10.82-14.26-21.64-28.51-32.45-42.77l-9.32-12.28c-.58-.76-1.88-.01-1.3.76h0Z"/>
          <path d="M459.2,221.73c16.49,6.96,32.97,13.92,49.46,20.88,4.73,2,9.46,4,14.2,5.99.88.37,1.64-.92.76-1.3-16.49-6.96-32.97-13.92-49.46-20.88-4.73-2-9.46-4-14.2-5.99-.88-.37-1.64.92-.76,1.3h0Z"/>
          <path d="M464.26,256.05c14.26-10.82,28.51-21.64,42.77-32.45,4.09-3.11,8.18-6.21,12.28-9.32.76-.58.01-1.88-.76-1.3-14.26,10.82-28.51,21.64-42.77,32.45-4.09,3.11-8.18,6.21-12.28,9.32-.76.58-.01,1.88.76,1.3h0Z"/>
          <path d="M457.12,239.55c17.76-2.22,35.52-4.43,53.28-6.65l15.29-1.91c.95-.12.96-1.62,0-1.5-17.76,2.22-35.52,4.43-53.28,6.65l-15.29,1.91c-.95.12-.96,1.62,0,1.5h0Z"/>
          <path d="M478.74,266.57c6.94-16.5,13.88-32.99,20.81-49.49l5.97-14.21c.37-.89-1.08-1.28-1.45-.4-6.94,16.5-13.88,32.99-20.81,49.49l-5.97,14.21c-.37.89,1.08,1.28,1.45.4h0Z"/>
          <path d="M496.48,268.8c-2.24-17.76-4.48-35.51-6.72-53.27-.64-5.1-1.29-10.19-1.93-15.29-.12-.94-1.62-.96-1.5,0,2.24,17.76,4.48,35.51,6.72,53.27.64,5.1,1.29,10.19,1.93,15.29.12.94,1.62.96,1.5,0h0Z"/>
        </g>
        <g>
          <path d="M477.31,203.07c6.97,16.48,13.94,32.97,20.9,49.45,2,4.73,4,9.46,6,14.19.37.89,1.67.12,1.3-.76-6.97-16.48-13.94-32.97-20.9-49.45-2-4.73-4-9.46-6-14.19-.37-.89-1.67-.12-1.3.76h0Z"/>
          <path d="M463.49,214.3c14.26,10.81,28.52,21.62,42.79,32.43,4.09,3.1,8.19,6.21,12.28,9.31.77.58,1.52-.72.76-1.3-14.26-10.81-28.52-21.62-42.79-32.43-4.09-3.1-8.19-6.21-12.28-9.31-.77-.58-1.52.72-.76,1.3h0Z"/>
          <path d="M459.96,248.62c16.48-6.97,32.97-13.94,49.45-20.9l14.19-6c.89-.37.12-1.67-.76-1.3-16.48,6.97-32.97,13.94-49.45,20.9l-14.19,6c-.89.37-.12,1.67.76,1.3h0Z"/>
          <path d="M457.13,230.96c17.76,2.23,35.51,4.46,53.27,6.69,5.1.64,10.19,1.28,15.29,1.92.96.12.95-1.38,0-1.5-17.76-2.23-35.51-4.46-53.27-6.69l-15.29-1.92c-.96-.12-.95,1.38,0,1.5h0Z"/>
          <path d="M471.22,262.46c10.79-14.28,21.58-28.55,32.37-42.83,3.1-4.1,6.2-8.2,9.29-12.29.58-.77-.72-1.52-1.3-.76-10.79,14.28-21.58,28.55-32.37,42.83l-9.29,12.29c-.58.77.72,1.52,1.3.76h0Z"/>
          <path d="M487.89,268.8c2.21-17.76,4.42-35.52,6.62-53.28l1.9-15.29c.12-.96-1.38-.95-1.5,0-2.21,17.76-4.42,35.52-6.62,53.28l-1.9,15.29c-.12.96,1.38.95,1.5,0h0Z"/>
        </g>
      </g>
    </g>
  </g>
</svg>