<?xml version="1.0" encoding="UTF-8"?>
<svg id="a" data-name="Layer 1" xmlns="http://www.w3.org/2000/svg" xmlns:xlink="http://www.w3.org/1999/xlink" viewBox="0 0 1280 1024">
  <defs>
    <style>
      .c {
        fill: url(#b);
      }

      .d {
        fill: #ffa951;
      }
    </style>
    <linearGradient id="b" data-name="sunset-gradient" x1="640" y1="0" x2="640" y2="1024" gradientUnits="userSpaceOnUse">
      <stop offset="0" stop-color="#ed1c24" stop-opacity=".9"/>
      <stop offset=".35" stop-color="#f15a24"/>
      <stop offset=".52" stop-color="#f15d23"/>
      <stop offset=".7" stop-color="#f46922"/>
      <stop offset=".86" stop-color="#f97d20"/>
      <stop offset="1" stop-color="#ff931e"/>
    </linearGradient>
  </defs>
  <rect class="c" width="1280" height="1024"/>
  <path class="d" d="M1265.32,1023H11c-14.68,0-10.84,2.41-11-10-.02-1.3,0-4.7,0-6l1-288.45c0-13.45,16.72-19.75,25.68-9.68h0c8.21,9.24,23.53,4.82,25.5-7.36l11.19-69.23c1.14-7.08,7.29-12.29,14.5-12.29h5.74c7.38,0,13.62,5.45,14.56,12.74l13.89,107.29c.9,6.95,6.63,12.28,13.67,12.71l77.44,4.72c5.51.34,10.75-2.43,13.55-7.16l24.07-40.62c2.79-4.71,7.99-7.48,13.48-7.17l86.1,4.85c6.77.38,12.4,5.33,13.62,11.97l14.71,80.47c.83,4.54,3.76,8.42,7.92,10.47l126.42,62.45c12.21,6.03,26.05,7.93,39.43,5.41l177.46-33.46c17.72-3.34,36.02,1.1,50.25,12.19l37.71,29.41c8.32,6.49,20.61,2.37,23.27-7.81l47.8-182.52c1.68-6.43,7.53-10.92,14.21-10.92h67.33c6.43,0,12.11,4.16,14.02,10.27l30.68,98.13c1.96,6.27,7.88,10.46,14.48,10.26l144.53-4.46c3.96-.12,7.7-1.83,10.37-4.73l79.9-86.76c9.05-9.82,25.51-3.46,25.51,9.86v303.44c0,2-1,2-14.68,2Z"/>
</svg>