<?xml version="1.0" encoding="UTF-8"?>
<svg id="b" data-name="Layer 2" xmlns="http://www.w3.org/2000/svg" viewBox="0 0 542.18 635.14">
  <defs>
    <style>
      .d {
        stroke: #000;
        stroke-miterlimit: 10;
        stroke-width: 8px;
      }
    </style>
  </defs>
  <g id="c" data-name="Layer 1">
    <g>
      <path class="d" d="M187.18,501.44h0c-10.92-66.24-58.22-119.97-86.59-180.8-28.38-60.83-46.78-133.56-17.18-193.81,12.1-24.62,38.6-63.5,63.67-74.65,13.73-6.11,14.96,3.52,3.36,14.55-27.54,26.17-40.44,66.72-43.78,97.09-2.93,26.55-5.59,53.97.49,80.12,5.44,23.43,18.87,46.01,40.03,57.43.08.04.18,0,.2-.09,5.4-23.05,6.69-34.2,2.45-57.54-3.3-18.17-21.68-38.52-26.43-42.12-24.54-18.61-44.3-38.03-84.87-47.91-.4-.1-3.43-1.32-4.17-2.14-1.41-1.55,2.76-3.15,4.84-3.41,7.98-.98,29.25-2.99,43.72,4.73,37.38,19.92,60.13,31.68,81.21,57.22.08.09.23.04.22-.08-1.56-32.79-16.1-63.92-35.69-90.27-20.19-27.15-37.66-51.05-55.07-81.02-.04-.07,4.13-3.51,4.19-3.46,17.53,15.98,65.3,56.36,83.88,90.04,27.29,49.44,33.25,110.2,16.11,164.01-.04.12.1.22.21.14,33.51-25.85,44.53-34.19,48.65-42.42,4.82-9.63,9.09-29.73-8.26-61.12-5.21-9.43-14.36-17.65-25.6-35.52-14.04-22.3,4.96-46.25,9.09-52.03,3.46-4.85,15.12-19.54,22.3-26.43,15.01-14.41,27.38-21.09,34.35-20.14h0c3.71,2.48.6,5.07-2.01,9.18-6.71,10.59-27.3,31.03-40.09,53.33-11.72,20.44,9.8,39.38,20.14,54.26,9.35,13.47,36.12,54.48,15.27,88.3-19.4,31.46-35.66,41.49-57.01,68.9-5.44,6.99-9.56,19.53-10.21,28.37-1.87,25.33,41.95,66.49,40,91.96,0,.12.13.16.19.06,10.47-20.36,34.6-46.24,52.25-60.56,30.8-24.99,30.5-27.76,14.56-65.5-5.55-13.13-10.26-22.76-12.74-36.79-3.86-21.82,4.53-74.93,24.45-118.74,14.23-31.31,36.39-63.43,46.94-83.39,1.26-2.38,3.8-3.87,6.48-3.64,5.68.5,6.15,5.05,5.34,8.94-3.98,19.14-17.76,50.35-34.19,98.72-6.67,19.65-20.26,45.5-16.59,70.09.02.11.15.15.23.07,21.55-22.56,33.86-38.26,50.07-58.81,18.49-23.45,27.67-40.23-24.39-57.9-7.7-2.61-29.77-11.61-45.54-16.14-.43-.12-7.21-.61-4.82-9.1,1.46-5.17,4.85-3.3,9.03-2.44,10.96,2.25,75.59,14.84,92.02,31.82,31.12,32.16,1,64.82.97,64.86h0c-12.73,16.28-24.29,28.67-35.03,40.23-11.34,12.21-14.87,15.69-35.77,41.1-2.82,3.43,5.64,18.1,8.15,23.24,7.13,14.58,5.9,11.6,11.83,23.16.04.08.14.11.21.07,21.47-10.82,44.66-58.38,52.44-81.04,8.9-25.94,22.28-53.55,35.1-78.54,14.33-27.95,67.57-29.27,70.33-28.8,4.48.76,12.08.89,12.03,3.12-.16,6.8-5.11,5.51-12.33,7.77-15.69,4.92-40.22,9.62-50.74,22.24-2.72,3.26-18.96,30.6-26.88,65.76-.02.07.05.14.12.13,2.76-.56,40.18-5.82,55.08-8.85,3.03-.62,6.55-.73,6.49,2.36,0,0,0,0,0,0h0c.08,2.68-5.12,5.69-7.5,6.9-23.24,11.79-47.33,9.64-55.37,17.6-12.41,12.29-16.86,27.34-25.68,48.58-13.46,32.42-19.47,38.66-44.85,62.92-11.7,11.18-17.57,12.77-46.94,45.7-19.28,21.62-21.19,21.17-26.37,26.76-14.38,15.48-23.1,35.34-24.94,56.39-.01.16-.03.32-.04.49-1.86,20.79-1.6,42.87-1.55,66.3.12,64.46,15.12,59.42-29.15,59.7-46.16.29-29.18,5.49-29.71-58.93-.19-23.01,1.66-47.74-.59-70.56Z"/>
      <g>
        <g>
          <path d="M34.54,115.53c0,17.9,0,35.79,0,53.69v15.41c0,.48.75.48.75,0,0-17.9,0-35.79,0-53.69v-15.41c0-.48-.75-.48-.75,0h0Z"/>
          <path d="M17.35,120.32c8.93,15.51,17.85,31.02,26.78,46.53,2.56,4.45,5.12,8.9,7.69,13.36.24.42.89.04.65-.38-8.93-15.51-17.85-31.02-26.78-46.53-2.56-4.45-5.12-8.9-7.69-13.36-.24-.42-.89-.04-.65.38h0Z"/>
          <path d="M.36,150.45c17.9,0,35.79,0,53.69,0h15.41c.48,0,.48-.75,0-.75-17.9,0-35.79,0-53.69,0H.36c-.48,0-.48.75,0,.75H.36Z"/>
          <path d="M4.83,133.08c15.49,8.97,30.97,17.94,46.46,26.91,4.45,2.57,8.89,5.15,13.34,7.72.42.24.8-.41.38-.65-15.49-8.97-30.97-17.94-46.46-26.91-4.45-2.57-8.89-5.15-13.34-7.72-.42-.24-.8.41-.38.65h0Z"/>
          <path d="M5.18,167.67c15.5-8.95,31-17.9,46.5-26.84,4.45-2.57,8.9-5.14,13.35-7.71.42-.24.04-.89-.38-.65-15.5,8.95-31,17.9-46.5,26.84-4.45,2.57-8.9,5.14-13.35,7.71-.42.24-.04.89.38.65h0Z"/>
          <path d="M17.96,180.19c8.95-15.5,17.9-31,26.84-46.5,2.57-4.45,5.14-8.9,7.71-13.35.24-.42-.41-.8-.65-.38-8.95,15.5-17.9,31-26.84,46.5-2.57,4.45-5.14,8.9-7.71,13.35-.24.42.41.8.65.38h0Z"/>
        </g>
        <g>
          <path d="M10.01,126.12c12.76,12.55,25.52,25.09,38.28,37.64l10.99,10.8c.34.34.88-.19.53-.53-12.76-12.55-25.52-25.09-38.28-37.64-3.66-3.6-7.33-7.2-10.99-10.8-.34-.34-.88.19-.53.53h0Z"/>
          <path d="M1.38,141.73c17.32,4.51,34.64,9.02,51.96,13.53l14.91,3.88c.47.12.67-.6.2-.72-17.32-4.51-34.64-9.02-51.96-13.53l-14.91-3.88c-.47-.12-.67.6-.2.72h0Z"/>
          <path d="M10.95,174.98c12.55-12.76,25.09-25.52,37.64-38.28,3.6-3.66,7.2-7.33,10.8-10.99.34-.34-.19-.88-.53-.53-12.55,12.76-25.09,25.52-37.64,38.28-3.6,3.66-7.2,7.33-10.8,10.99-.34.34.19.88.53.53h0Z"/>
          <path d="M1.7,159.62c17.25-4.75,34.51-9.51,51.76-14.26l14.86-4.09c.46-.13.27-.85-.2-.72-17.25,4.75-34.51,9.51-51.76,14.26l-14.86,4.09c-.46.13-.27.85.2.72h0Z"/>
          <path d="M26.61,183.62c4.49-17.33,8.97-34.65,13.46-51.98,1.29-4.97,2.58-9.95,3.86-14.92.12-.47-.6-.67-.72-.2-4.49,17.33-8.97,34.65-13.46,51.98-1.29,4.97-2.58,9.95-3.86,14.92-.12.47.6.67.72.2h0Z"/>
          <path d="M44.5,183.27c-4.78-17.25-9.56-34.49-14.33-51.74-1.37-4.95-2.74-9.9-4.11-14.85-.13-.46-.85-.27-.72.2,4.78,17.25,9.56,34.49,14.33,51.74,1.37,4.95,2.74,9.9,4.11,14.85.13.46.85.27.72-.2h0Z"/>
        </g>
        <g>
          <path d="M13.7,122.74c10.82,14.26,21.64,28.51,32.45,42.77,3.11,4.09,6.21,8.18,9.32,12.28.29.38.94,0,.65-.38-10.82-14.26-21.64-28.51-32.45-42.77-3.11-4.09-6.21-8.18-9.32-12.28-.29-.38-.94,0-.65.38h0Z"/>
          <path d="M2.89,136.96c16.49,6.96,32.97,13.92,49.46,20.88l14.2,5.99c.44.19.82-.46.38-.65-16.49-6.96-32.97-13.92-49.46-20.88l-14.2-5.99c-.44-.19-.82.46-.38.65h0Z"/>
          <path d="M7.58,171.28c14.26-10.82,28.51-21.64,42.77-32.45,4.09-3.11,8.18-6.21,12.28-9.32.38-.29,0-.94-.38-.65-14.26,10.82-28.51,21.64-42.77,32.45-4.09,3.11-8.18,6.21-12.28,9.32-.38.29,0,.94.38.65h0Z"/>
          <path d="M.63,154.73c17.76-2.22,35.52-4.43,53.28-6.65,5.1-.64,10.19-1.27,15.29-1.91.47-.06.48-.81,0-.75-17.76,2.22-35.52,4.43-53.28,6.65-5.1.64-10.19,1.27-15.29,1.91-.47.06-.48.81,0,.75h0Z"/>
          <path d="M21.88,182.02c6.94-16.5,13.88-32.99,20.81-49.49,1.99-4.74,3.98-9.47,5.97-14.21.19-.44-.54-.64-.72-.2-6.94,16.5-13.88,32.99-20.81,49.49-1.99,4.74-3.98,9.47-5.97,14.21-.19.44.54.64.72.2h0Z"/>
          <path d="M39.61,184.35c-2.24-17.76-4.48-35.51-6.72-53.27-.64-5.1-1.29-10.19-1.93-15.29-.06-.47-.81-.48-.75,0,2.24,17.76,4.48,35.51,6.72,53.27.64,5.1,1.29,10.19,1.93,15.29.06.47.81.48.75,0h0Z"/>
        </g>
        <g>
          <path d="M21.14,118.44c6.97,16.48,13.94,32.97,20.9,49.45,2,4.73,4,9.46,6,14.19.19.44.83.06.65-.38-6.97-16.48-13.94-32.97-20.9-49.45-2-4.73-4-9.46-6-14.19-.19-.44-.83-.06-.65.38h0Z"/>
          <path d="M7.19,129.53c14.26,10.81,28.52,21.62,42.79,32.43,4.09,3.1,8.19,6.21,12.28,9.31.38.29.76-.36.38-.65-14.26-10.81-28.52-21.62-42.79-32.43l-12.28-9.31c-.38-.29-.76.36-.38.65h0Z"/>
          <path d="M3.28,163.85c16.48-6.97,32.97-13.94,49.45-20.9,4.73-2,9.46-4,14.19-6,.44-.19.06-.83-.38-.65-16.48,6.97-32.97,13.94-49.45,20.9-4.73,2-9.46,4-14.19,6-.44.19-.06.83.38.65h0Z"/>
          <path d="M.63,146.14c17.76,2.23,35.51,4.46,53.27,6.69l15.29,1.92c.48.06.47-.69,0-.75-17.76-2.23-35.51-4.46-53.27-6.69l-15.29-1.92c-.48-.06-.47.69,0,.75h0Z"/>
          <path d="M14.4,177.83c10.79-14.28,21.58-28.55,32.37-42.83,3.1-4.1,6.2-8.2,9.29-12.29.29-.39-.36-.76-.65-.38-10.79,14.28-21.58,28.55-32.37,42.83l-9.29,12.29c-.29.39.36.76.65.38h0Z"/>
          <path d="M31.03,184.36c2.21-17.76,4.42-35.52,6.62-53.28.63-5.1,1.27-10.2,1.9-15.29.06-.48-.69-.47-.75,0-2.21,17.76-4.42,35.52-6.62,53.28-.63,5.1-1.27,10.2-1.9,15.29-.06.48.69.47.75,0h0Z"/>
        </g>
      </g>
      <g>
        <g>
          <path d="M74.51.36c0,17.9,0,35.79,0,53.69v15.41c0,.48.75.48.75,0,0-17.9,0-35.79,0-53.69V.36c0-.48-.75-.48-.75,0h0Z"/>
          <path d="M57.33,5.16c8.93,15.51,17.85,31.02,26.78,46.53,2.56,4.45,5.12,8.9,7.69,13.36.24.42.89.04.65-.38-8.93-15.51-17.85-31.02-26.78-46.53-2.56-4.45-5.12-8.9-7.69-13.36-.24-.42-.89-.04-.65.38h0Z"/>
          <path d="M40.34,35.29c17.9,0,35.79,0,53.69,0h15.41c.48,0,.48-.75,0-.75-17.9,0-35.79,0-53.69,0h-15.41c-.48,0-.48.75,0,.75h0Z"/>
          <path d="M44.8,17.92c15.49,8.97,30.97,17.94,46.46,26.91,4.45,2.57,8.89,5.15,13.34,7.72.42.24.8-.41.38-.65-15.49-8.97-30.97-17.94-46.46-26.91-4.45-2.57-8.89-5.15-13.34-7.72-.42-.24-.8.41-.38.65h0Z"/>
          <path d="M45.16,52.51c15.5-8.95,31-17.9,46.5-26.84l13.35-7.71c.42-.24.04-.89-.38-.65-15.5,8.95-31,17.9-46.5,26.84l-13.35,7.71c-.42.24-.04.89.38.65h0Z"/>
          <path d="M57.94,65.02c8.95-15.5,17.9-31,26.84-46.5,2.57-4.45,5.14-8.9,7.71-13.35.24-.42-.41-.8-.65-.38-8.95,15.5-17.9,31-26.84,46.5-2.57,4.45-5.14,8.9-7.71,13.35-.24.42.41.8.65.38h0Z"/>
        </g>
        <g>
          <path d="M49.99,10.95c12.76,12.55,25.52,25.09,38.28,37.64l10.99,10.8c.34.34.88-.19.53-.53-12.76-12.55-25.52-25.09-38.28-37.64l-10.99-10.8c-.34-.34-.88.19-.53.53h0Z"/>
          <path d="M41.35,26.57c17.32,4.51,34.64,9.02,51.96,13.53l14.91,3.88c.47.12.67-.6.2-.72-17.32-4.51-34.64-9.02-51.96-13.53l-14.91-3.88c-.47-.12-.67.6-.2.72h0Z"/>
          <path d="M50.93,59.81c12.55-12.76,25.09-25.52,37.64-38.28,3.6-3.66,7.2-7.33,10.8-10.99.34-.34-.19-.88-.53-.53-12.55,12.76-25.09,25.52-37.64,38.28-3.6,3.66-7.2,7.33-10.8,10.99-.34.34.19.88.53.53h0Z"/>
          <path d="M41.68,44.45c17.25-4.75,34.51-9.51,51.76-14.26l14.86-4.09c.46-.13.27-.85-.2-.72-17.25,4.75-34.51,9.51-51.76,14.26-4.95,1.36-9.9,2.73-14.86,4.09-.46.13-.27.85.2.72h0Z"/>
          <path d="M66.59,68.46c4.49-17.33,8.97-34.65,13.46-51.98l3.86-14.92c.12-.47-.6-.67-.72-.2-4.49,17.33-8.97,34.65-13.46,51.98-1.29,4.97-2.58,9.95-3.86,14.92-.12.47.6.67.72.2h0Z"/>
          <path d="M84.47,68.11c-4.78-17.25-9.56-34.49-14.33-51.74-1.37-4.95-2.74-9.9-4.11-14.85-.13-.46-.85-.27-.72.2,4.78,17.25,9.56,34.49,14.33,51.74,1.37,4.95,2.74,9.9,4.11,14.85.13.46.85.27.72-.2h0Z"/>
        </g>
        <g>
          <path d="M53.68,7.58c10.82,14.26,21.64,28.51,32.45,42.77,3.11,4.09,6.21,8.18,9.32,12.28.29.38.94,0,.65-.38-10.82-14.26-21.64-28.51-32.45-42.77-3.11-4.09-6.21-8.18-9.32-12.28-.29-.38-.94,0-.65.38h0Z"/>
          <path d="M42.87,21.8c16.49,6.96,32.97,13.92,49.46,20.88l14.2,5.99c.44.19.82-.46.38-.65-16.49-6.96-32.97-13.92-49.46-20.88l-14.2-5.99c-.44-.19-.82.46-.38.65h0Z"/>
          <path d="M47.55,56.12c14.26-10.82,28.51-21.64,42.77-32.45,4.09-3.11,8.18-6.21,12.28-9.32.38-.29,0-.94-.38-.65-14.26,10.82-28.51,21.64-42.77,32.45-4.09,3.11-8.18,6.21-12.28,9.32-.38.29,0,.94.38.65h0Z"/>
          <path d="M40.6,39.57c17.76-2.22,35.52-4.43,53.28-6.65,5.1-.64,10.19-1.27,15.29-1.91.47-.06.48-.81,0-.75-17.76,2.22-35.52,4.43-53.28,6.65l-15.29,1.91c-.47.06-.48.81,0,.75h0Z"/>
          <path d="M61.85,66.86c6.94-16.5,13.88-32.99,20.81-49.49,1.99-4.74,3.98-9.47,5.97-14.21.19-.44-.54-.64-.72-.2-6.94,16.5-13.88,32.99-20.81,49.49-1.99,4.74-3.98,9.47-5.97,14.21-.19.44.54.64.72.2h0Z"/>
          <path d="M79.59,69.19c-2.24-17.76-4.48-35.51-6.72-53.27-.64-5.1-1.29-10.19-1.93-15.29-.06-.47-.81-.48-.75,0,2.24,17.76,4.48,35.51,6.72,53.27.64,5.1,1.29,10.19,1.93,15.29.06.47.81.48.75,0h0Z"/>
        </g>
        <g>
          <path d="M61.11,3.28c6.97,16.48,13.94,32.97,20.9,49.45l6,14.19c.19.44.83.06.65-.38-6.97-16.48-13.94-32.97-20.9-49.45-2-4.73-4-9.46-6-14.19-.19-.44-.83-.06-.65.38h0Z"/>
          <path d="M47.16,14.37c14.26,10.81,28.52,21.62,42.79,32.43,4.09,3.1,8.19,6.21,12.28,9.31.38.29.76-.36.38-.65-14.26-10.81-28.52-21.62-42.79-32.43-4.09-3.1-8.19-6.21-12.28-9.31-.38-.29-.76.36-.38.65h0Z"/>
          <path d="M43.25,48.69c16.48-6.97,32.97-13.94,49.45-20.9,4.73-2,9.46-4,14.19-6,.44-.19.06-.83-.38-.65-16.48,6.97-32.97,13.94-49.45,20.9-4.73,2-9.46,4-14.19,6-.44.19-.06.83.38.65h0Z"/>
          <path d="M40.61,30.98c17.76,2.23,35.51,4.46,53.27,6.69l15.29,1.92c.48.06.47-.69,0-.75-17.76-2.23-35.51-4.46-53.27-6.69l-15.29-1.92c-.48-.06-.47.69,0,.75h0Z"/>
          <path d="M54.38,62.66c10.79-14.28,21.58-28.55,32.37-42.83l9.29-12.29c.29-.39-.36-.76-.65-.38-10.79,14.28-21.58,28.55-32.37,42.83l-9.29,12.29c-.29.39.36.76.65.38h0Z"/>
          <path d="M71,69.2c2.21-17.76,4.42-35.52,6.62-53.28.63-5.1,1.27-10.2,1.9-15.29.06-.48-.69-.47-.75,0-2.21,17.76-4.42,35.52-6.62,53.28-.63,5.1-1.27,10.2-1.9,15.29-.06.48.69.47.75,0h0Z"/>
        </g>
      </g>
      <g>
        <g>
          <path d="M158.46,17.64c0,17.9,0,35.79,0,53.69v15.41c0,.48.75.48.75,0,0-17.9,0-35.79,0-53.69v-15.41c0-.48-.75-.48-.75,0h0Z"/>
          <path d="M141.28,22.43c8.93,15.51,17.85,31.02,26.78,46.53,2.56,4.45,5.12,8.9,7.69,13.36.24.42.89.04.65-.38-8.93-15.51-17.85-31.02-26.78-46.53-2.56-4.45-5.12-8.9-7.69-13.36-.24-.42-.89-.04-.65.38h0Z"/>
          <path d="M124.29,52.56c17.9,0,35.79,0,53.69,0h15.41c.48,0,.48-.75,0-.75-17.9,0-35.79,0-53.69,0h-15.41c-.48,0-.48.75,0,.75h0Z"/>
          <path d="M128.75,35.2c15.49,8.97,30.97,17.94,46.46,26.91,4.45,2.57,8.89,5.15,13.34,7.72.42.24.8-.41.38-.65-15.49-8.97-30.97-17.94-46.46-26.91-4.45-2.57-8.89-5.15-13.34-7.72-.42-.24-.8.41-.38.65h0Z"/>
          <path d="M129.11,69.79c15.5-8.95,31-17.9,46.5-26.84l13.35-7.71c.42-.24.04-.89-.38-.65-15.5,8.95-31,17.9-46.5,26.84-4.45,2.57-8.9,5.14-13.35,7.71-.42.24-.04.89.38.65h0Z"/>
          <path d="M141.89,82.3c8.95-15.5,17.9-31,26.84-46.5,2.57-4.45,5.14-8.9,7.71-13.35.24-.42-.41-.8-.65-.38-8.95,15.5-17.9,31-26.84,46.5-2.57,4.45-5.14,8.9-7.71,13.35-.24.42.41.8.65.38h0Z"/>
        </g>
        <g>
          <path d="M133.94,28.23c12.76,12.55,25.52,25.09,38.28,37.64l10.99,10.8c.34.34.88-.19.53-.53-12.76-12.55-25.52-25.09-38.28-37.64-3.66-3.6-7.33-7.2-10.99-10.8-.34-.34-.88.19-.53.53h0Z"/>
          <path d="M125.3,43.84c17.32,4.51,34.64,9.02,51.96,13.53l14.91,3.88c.47.12.67-.6.2-.72-17.32-4.51-34.64-9.02-51.96-13.53l-14.91-3.88c-.47-.12-.67.6-.2.72h0Z"/>
          <path d="M134.88,77.09c12.55-12.76,25.09-25.52,37.64-38.28,3.6-3.66,7.2-7.33,10.8-10.99.34-.34-.19-.88-.53-.53-12.55,12.76-25.09,25.52-37.64,38.28-3.6,3.66-7.2,7.33-10.8,10.99-.34.34.19.88.53.53h0Z"/>
          <path d="M125.63,61.73c17.25-4.75,34.51-9.51,51.76-14.26l14.86-4.09c.46-.13.27-.85-.2-.72-17.25,4.75-34.51,9.51-51.76,14.26l-14.86,4.09c-.46.13-.27.85.2.72h0Z"/>
          <path d="M150.54,85.73c4.49-17.33,8.97-34.65,13.46-51.98,1.29-4.97,2.58-9.95,3.86-14.92.12-.47-.6-.67-.72-.2-4.49,17.33-8.97,34.65-13.46,51.98-1.29,4.97-2.58,9.95-3.86,14.92-.12.47.6.67.72.2h0Z"/>
          <path d="M168.42,85.38c-4.78-17.25-9.56-34.49-14.33-51.74-1.37-4.95-2.74-9.9-4.11-14.85-.13-.46-.85-.27-.72.2,4.78,17.25,9.56,34.49,14.33,51.74l4.11,14.85c.13.46.85.27.72-.2h0Z"/>
        </g>
        <g>
          <path d="M137.63,24.85c10.82,14.26,21.64,28.51,32.45,42.77,3.11,4.09,6.21,8.18,9.32,12.28.29.38.94,0,.65-.38-10.82-14.26-21.64-28.51-32.45-42.77-3.11-4.09-6.21-8.18-9.32-12.28-.29-.38-.94,0-.65.38h0Z"/>
          <path d="M126.82,39.07c16.49,6.96,32.97,13.92,49.46,20.88l14.2,5.99c.44.19.82-.46.38-.65-16.49-6.96-32.97-13.92-49.46-20.88-4.73-2-9.46-4-14.2-5.99-.44-.19-.82.46-.38.65h0Z"/>
          <path d="M131.5,73.39c14.26-10.82,28.51-21.64,42.77-32.45,4.09-3.11,8.18-6.21,12.28-9.32.38-.29,0-.94-.38-.65-14.26,10.82-28.51,21.64-42.77,32.45-4.09,3.11-8.18,6.21-12.28,9.32-.38.29,0,.94.38.65h0Z"/>
          <path d="M124.56,56.84c17.76-2.22,35.52-4.43,53.28-6.65,5.1-.64,10.19-1.27,15.29-1.91.47-.06.48-.81,0-.75-17.76,2.22-35.52,4.43-53.28,6.65-5.1.64-10.19,1.27-15.29,1.91-.47.06-.48.81,0,.75h0Z"/>
          <path d="M145.81,84.13c6.94-16.5,13.88-32.99,20.81-49.49,1.99-4.74,3.98-9.47,5.97-14.21.19-.44-.54-.64-.72-.2-6.94,16.5-13.88,32.99-20.81,49.49-1.99,4.74-3.98,9.47-5.97,14.21-.19.44.54.64.72.2h0Z"/>
          <path d="M163.54,86.47c-2.24-17.76-4.48-35.51-6.72-53.27-.64-5.1-1.29-10.19-1.93-15.29-.06-.47-.81-.48-.75,0,2.24,17.76,4.48,35.51,6.72,53.27.64,5.1,1.29,10.19,1.93,15.29.06.47.81.48.75,0h0Z"/>
        </g>
        <g>
          <path d="M145.06,20.55c6.97,16.48,13.94,32.97,20.9,49.45,2,4.73,4,9.46,6,14.19.19.44.83.06.65-.38-6.97-16.48-13.94-32.97-20.9-49.45l-6-14.19c-.19-.44-.83-.06-.65.38h0Z"/>
          <path d="M131.12,31.64c14.26,10.81,28.52,21.62,42.79,32.43,4.09,3.1,8.19,6.21,12.28,9.31.38.29.76-.36.38-.65-14.26-10.81-28.52-21.62-42.79-32.43-4.09-3.1-8.19-6.21-12.28-9.31-.38-.29-.76.36-.38.65h0Z"/>
          <path d="M127.2,65.96c16.48-6.97,32.97-13.94,49.45-20.9,4.73-2,9.46-4,14.19-6,.44-.19.06-.83-.38-.65-16.48,6.97-32.97,13.94-49.45,20.9-4.73,2-9.46,4-14.19,6-.44.19-.06.83.38.65h0Z"/>
          <path d="M124.56,48.25c17.76,2.23,35.51,4.46,53.27,6.69,5.1.64,10.19,1.28,15.29,1.92.48.06.47-.69,0-.75-17.76-2.23-35.51-4.46-53.27-6.69l-15.29-1.92c-.48-.06-.47.69,0,.75h0Z"/>
          <path d="M138.33,79.94c10.79-14.28,21.58-28.55,32.37-42.83,3.1-4.1,6.2-8.2,9.29-12.29.29-.39-.36-.76-.65-.38-10.79,14.28-21.58,28.55-32.37,42.83-3.1,4.1-6.2,8.2-9.29,12.29-.29.39.36.76.65.38h0Z"/>
          <path d="M154.95,86.47c2.21-17.76,4.42-35.52,6.62-53.28.63-5.1,1.27-10.2,1.9-15.29.06-.48-.69-.47-.75,0-2.21,17.76-4.42,35.52-6.62,53.28-.63,5.1-1.27,10.2-1.9,15.29-.06.48.69.47.75,0h0Z"/>
        </g>
      </g>
      <g>
        <g>
          <path d="M258.38,18.31c0,17.9,0,35.79,0,53.69v15.41c0,.48.75.48.75,0,0-17.9,0-35.79,0-53.69,0-5.14,0-10.27,0-15.41,0-.48-.75-.48-.75,0h0Z"/>
          <path d="M241.19,23.1c8.93,15.51,17.85,31.02,26.78,46.53,2.56,4.45,5.12,8.9,7.69,13.36.24.42.89.04.65-.38-8.93-15.51-17.85-31.02-26.78-46.53-2.56-4.45-5.12-8.9-7.69-13.36-.24-.42-.89-.04-.65.38h0Z"/>
          <path d="M224.2,53.23c17.9,0,35.79,0,53.69,0h15.41c.48,0,.48-.75,0-.75-17.9,0-35.79,0-53.69,0h-15.41c-.48,0-.48.75,0,.75h0Z"/>
          <path d="M228.67,35.87c15.49,8.97,30.97,17.94,46.46,26.91,4.45,2.57,8.89,5.15,13.34,7.72.42.24.8-.41.38-.65-15.49-8.97-30.97-17.94-46.46-26.91-4.45-2.57-8.89-5.15-13.34-7.72-.42-.24-.8.41-.38.65h0Z"/>
          <path d="M229.02,70.46c15.5-8.95,31-17.9,46.5-26.84l13.35-7.71c.42-.24.04-.89-.38-.65-15.5,8.95-31,17.9-46.5,26.84-4.45,2.57-8.9,5.14-13.35,7.71-.42.24-.04.89.38.65h0Z"/>
          <path d="M241.8,82.97c8.95-15.5,17.9-31,26.84-46.5,2.57-4.45,5.14-8.9,7.71-13.35.24-.42-.41-.8-.65-.38-8.95,15.5-17.9,31-26.84,46.5-2.57,4.45-5.14,8.9-7.71,13.35-.24.42.41.8.65.38h0Z"/>
        </g>
        <g>
          <path d="M233.85,28.9c12.76,12.55,25.52,25.09,38.28,37.64l10.99,10.8c.34.34.88-.19.53-.53-12.76-12.55-25.52-25.09-38.28-37.64-3.66-3.6-7.33-7.2-10.99-10.8-.34-.34-.88.19-.53.53h0Z"/>
          <path d="M225.22,44.51c17.32,4.51,34.64,9.02,51.96,13.53l14.91,3.88c.47.12.67-.6.2-.72-17.32-4.51-34.64-9.02-51.96-13.53l-14.91-3.88c-.47-.12-.67.6-.2.72h0Z"/>
          <path d="M234.79,77.76c12.55-12.76,25.09-25.52,37.64-38.28,3.6-3.66,7.2-7.33,10.8-10.99.34-.34-.19-.88-.53-.53-12.55,12.76-25.09,25.52-37.64,38.28-3.6,3.66-7.2,7.33-10.8,10.99-.34.34.19.88.53.53h0Z"/>
          <path d="M225.54,62.4c17.25-4.75,34.51-9.51,51.76-14.26l14.86-4.09c.46-.13.27-.85-.2-.72-17.25,4.75-34.51,9.51-51.76,14.26l-14.86,4.09c-.46.13-.27.85.2.72h0Z"/>
          <path d="M250.45,86.4c4.49-17.33,8.97-34.65,13.46-51.98,1.29-4.97,2.58-9.95,3.86-14.92.12-.47-.6-.67-.72-.2-4.49,17.33-8.97,34.65-13.46,51.98-1.29,4.97-2.58,9.95-3.86,14.92-.12.47.6.67.72.2h0Z"/>
          <path d="M268.34,86.05c-4.78-17.25-9.56-34.49-14.33-51.74-1.37-4.95-2.74-9.9-4.11-14.85-.13-.46-.85-.27-.72.2,4.78,17.25,9.56,34.49,14.33,51.74,1.37,4.95,2.74,9.9,4.11,14.85.13.46.85.27.72-.2h0Z"/>
        </g>
        <g>
          <path d="M237.55,25.52c10.82,14.26,21.64,28.51,32.45,42.77,3.11,4.09,6.21,8.18,9.32,12.28.29.38.94,0,.65-.38-10.82-14.26-21.64-28.51-32.45-42.77-3.11-4.09-6.21-8.18-9.32-12.28-.29-.38-.94,0-.65.38h0Z"/>
          <path d="M226.73,39.74c16.49,6.96,32.97,13.92,49.46,20.88l14.2,5.99c.44.19.82-.46.38-.65-16.49-6.96-32.97-13.92-49.46-20.88l-14.2-5.99c-.44-.19-.82.46-.38.65h0Z"/>
          <path d="M231.42,74.06c14.26-10.82,28.51-21.64,42.77-32.45,4.09-3.11,8.18-6.21,12.28-9.32.38-.29,0-.94-.38-.65-14.26,10.82-28.51,21.64-42.77,32.45-4.09,3.11-8.18,6.21-12.28,9.32-.38.29,0,.94.38.65h0Z"/>
          <path d="M224.47,57.51c17.76-2.22,35.52-4.43,53.28-6.65,5.1-.64,10.19-1.27,15.29-1.91.47-.06.48-.81,0-.75-17.76,2.22-35.52,4.43-53.28,6.65-5.1.64-10.19,1.27-15.29,1.91-.47.06-.48.81,0,.75h0Z"/>
          <path d="M245.72,84.8c6.94-16.5,13.88-32.99,20.81-49.49,1.99-4.74,3.98-9.47,5.97-14.21.19-.44-.54-.64-.72-.2-6.94,16.5-13.88,32.99-20.81,49.49-1.99,4.74-3.98,9.47-5.97,14.21-.19.44.54.64.72.2h0Z"/>
          <path d="M263.45,87.13c-2.24-17.76-4.48-35.51-6.72-53.27-.64-5.1-1.29-10.19-1.93-15.29-.06-.47-.81-.48-.75,0,2.24,17.76,4.48,35.51,6.72,53.27.64,5.1,1.29,10.19,1.93,15.29.06.47.81.48.75,0h0Z"/>
        </g>
        <g>
          <path d="M244.98,21.22c6.97,16.48,13.94,32.97,20.9,49.45,2,4.73,4,9.46,6,14.19.19.44.83.06.65-.38-6.97-16.48-13.94-32.97-20.9-49.45-2-4.73-4-9.46-6-14.19-.19-.44-.83-.06-.65.38h0Z"/>
          <path d="M231.03,32.31c14.26,10.81,28.52,21.62,42.79,32.43,4.09,3.1,8.19,6.21,12.28,9.31.38.29.76-.36.38-.65-14.26-10.81-28.52-21.62-42.79-32.43-4.09-3.1-8.19-6.21-12.28-9.31-.38-.29-.76.36-.38.65h0Z"/>
          <path d="M227.12,66.63c16.48-6.97,32.97-13.94,49.45-20.9,4.73-2,9.46-4,14.19-6,.44-.19.06-.83-.38-.65-16.48,6.97-32.97,13.94-49.45,20.9-4.73,2-9.46,4-14.19,6-.44.19-.06.83.38.65h0Z"/>
          <path d="M224.47,48.92c17.76,2.23,35.51,4.46,53.27,6.69l15.29,1.92c.48.06.47-.69,0-.75-17.76-2.23-35.51-4.46-53.27-6.69l-15.29-1.92c-.48-.06-.47.69,0,.75h0Z"/>
          <path d="M238.24,80.61c10.79-14.28,21.58-28.55,32.37-42.83l9.29-12.29c.29-.39-.36-.76-.65-.38-10.79,14.28-21.58,28.55-32.37,42.83l-9.29,12.29c-.29.39.36.76.65.38h0Z"/>
          <path d="M254.87,87.14c2.21-17.76,4.42-35.52,6.62-53.28.63-5.1,1.27-10.2,1.9-15.29.06-.48-.69-.47-.75,0-2.21,17.76-4.42,35.52-6.62,53.28-.63,5.1-1.27,10.2-1.9,15.29-.06.48.69.47.75,0h0Z"/>
        </g>
      </g>
      <g>
        <g>
          <path d="M287.9,80.68c0,17.9,0,35.79,0,53.69v15.41c0,.48.75.48.75,0,0-17.9,0-35.79,0-53.69v-15.41c0-.48-.75-.48-.75,0h0Z"/>
          <path d="M270.72,85.47c8.93,15.51,17.85,31.02,26.78,46.53,2.56,4.45,5.12,8.9,7.69,13.36.24.42.89.04.65-.38-8.93-15.51-17.85-31.02-26.78-46.53-2.56-4.45-5.12-8.9-7.69-13.36-.24-.42-.89-.04-.65.38h0Z"/>
          <path d="M253.73,115.6c17.9,0,35.79,0,53.69,0h15.41c.48,0,.48-.75,0-.75-17.9,0-35.79,0-53.69,0h-15.41c-.48,0-.48.75,0,.75h0Z"/>
          <path d="M258.19,98.24c15.49,8.97,30.97,17.94,46.46,26.91,4.45,2.57,8.89,5.15,13.34,7.72.42.24.8-.41.38-.65-15.49-8.97-30.97-17.94-46.46-26.91-4.45-2.57-8.89-5.15-13.34-7.72-.42-.24-.8.41-.38.65h0Z"/>
          <path d="M258.54,132.83c15.5-8.95,31-17.9,46.5-26.84,4.45-2.57,8.9-5.14,13.35-7.71.42-.24.04-.89-.38-.65-15.5,8.95-31,17.9-46.5,26.84-4.45,2.57-8.9,5.14-13.35,7.71-.42.24-.04.89.38.65h0Z"/>
          <path d="M271.33,145.34c8.95-15.5,17.9-31,26.84-46.5,2.57-4.45,5.14-8.9,7.71-13.35.24-.42-.41-.8-.65-.38-8.95,15.5-17.9,31-26.84,46.5-2.57,4.45-5.14,8.9-7.71,13.35-.24.42.41.8.65.38h0Z"/>
        </g>
        <g>
          <path d="M263.38,91.27c12.76,12.55,25.52,25.09,38.28,37.64,3.66,3.6,7.33,7.2,10.99,10.8.34.34.88-.19.53-.53-12.76-12.55-25.52-25.09-38.28-37.64-3.66-3.6-7.33-7.2-10.99-10.8-.34-.34-.88.19-.53.53h0Z"/>
          <path d="M254.74,106.89c17.32,4.51,34.64,9.02,51.96,13.53l14.91,3.88c.47.12.67-.6.2-.72-17.32-4.51-34.64-9.02-51.96-13.53l-14.91-3.88c-.47-.12-.67.6-.2.72h0Z"/>
          <path d="M264.32,140.13c12.55-12.76,25.09-25.52,37.64-38.28,3.6-3.66,7.2-7.33,10.8-10.99.34-.34-.19-.88-.53-.53-12.55,12.76-25.09,25.52-37.64,38.28-3.6,3.66-7.2,7.33-10.8,10.99-.34.34.19.88.53.53h0Z"/>
          <path d="M255.07,124.77c17.25-4.75,34.51-9.51,51.76-14.26l14.86-4.09c.46-.13.27-.85-.2-.72-17.25,4.75-34.51,9.51-51.76,14.26l-14.86,4.09c-.46.13-.27.85.2.72h0Z"/>
          <path d="M279.98,148.78c4.49-17.33,8.97-34.65,13.46-51.98l3.86-14.92c.12-.47-.6-.67-.72-.2-4.49,17.33-8.97,34.65-13.46,51.98-1.29,4.97-2.58,9.95-3.86,14.92-.12.47.6.67.72.2h0Z"/>
          <path d="M297.86,148.43c-4.78-17.25-9.56-34.49-14.33-51.74-1.37-4.95-2.74-9.9-4.11-14.85-.13-.46-.85-.27-.72.2,4.78,17.25,9.56,34.49,14.33,51.74,1.37,4.95,2.74,9.9,4.11,14.85.13.46.85.27.72-.2h0Z"/>
        </g>
        <g>
          <path d="M267.07,87.9c10.82,14.26,21.64,28.51,32.45,42.77,3.11,4.09,6.21,8.18,9.32,12.28.29.38.94,0,.65-.38-10.82-14.26-21.64-28.51-32.45-42.77-3.11-4.09-6.21-8.18-9.32-12.28-.29-.38-.94,0-.65.38h0Z"/>
          <path d="M256.26,102.12c16.49,6.96,32.97,13.92,49.46,20.88l14.2,5.99c.44.19.82-.46.38-.65-16.49-6.96-32.97-13.92-49.46-20.88l-14.2-5.99c-.44-.19-.82.46-.38.65h0Z"/>
          <path d="M260.94,136.44c14.26-10.82,28.51-21.64,42.77-32.45,4.09-3.11,8.18-6.21,12.28-9.32.38-.29,0-.94-.38-.65-14.26,10.82-28.51,21.64-42.77,32.45-4.09,3.11-8.18,6.21-12.28,9.32-.38.29,0,.94.38.65h0Z"/>
          <path d="M253.99,119.88c17.76-2.22,35.52-4.43,53.28-6.65,5.1-.64,10.19-1.27,15.29-1.91.47-.06.48-.81,0-.75-17.76,2.22-35.52,4.43-53.28,6.65-5.1.64-10.19,1.27-15.29,1.91-.47.06-.48.81,0,.75h0Z"/>
          <path d="M275.24,147.18c6.94-16.5,13.88-32.99,20.81-49.49,1.99-4.74,3.98-9.47,5.97-14.21.19-.44-.54-.64-.72-.2-6.94,16.5-13.88,32.99-20.81,49.49-1.99,4.74-3.98,9.47-5.97,14.21-.19.44.54.64.72.2h0Z"/>
          <path d="M292.98,149.51c-2.24-17.76-4.48-35.51-6.72-53.27-.64-5.1-1.29-10.19-1.93-15.29-.06-.47-.81-.48-.75,0,2.24,17.76,4.48,35.51,6.72,53.27.64,5.1,1.29,10.19,1.93,15.29.06.47.81.48.75,0h0Z"/>
        </g>
        <g>
          <path d="M274.5,83.6c6.97,16.48,13.94,32.97,20.9,49.45,2,4.73,4,9.46,6,14.19.19.44.83.06.65-.38-6.97-16.48-13.94-32.97-20.9-49.45-2-4.73-4-9.46-6-14.19-.19-.44-.83-.06-.65.38h0Z"/>
          <path d="M260.55,94.68c14.26,10.81,28.52,21.62,42.79,32.43,4.09,3.1,8.19,6.21,12.28,9.31.38.29.76-.36.38-.65-14.26-10.81-28.52-21.62-42.79-32.43l-12.28-9.31c-.38-.29-.76.36-.38.65h0Z"/>
          <path d="M256.64,129.01c16.48-6.97,32.97-13.94,49.45-20.9,4.73-2,9.46-4,14.19-6,.44-.19.06-.83-.38-.65-16.48,6.97-32.97,13.94-49.45,20.9-4.73,2-9.46,4-14.19,6-.44.19-.06.83.38.65h0Z"/>
          <path d="M254,111.3c17.76,2.23,35.51,4.46,53.27,6.69l15.29,1.92c.48.06.47-.69,0-.75-17.76-2.23-35.51-4.46-53.27-6.69l-15.29-1.92c-.48-.06-.47.69,0,.75h0Z"/>
          <path d="M267.77,142.98c10.79-14.28,21.58-28.55,32.37-42.83,3.1-4.1,6.2-8.2,9.29-12.29.29-.39-.36-.76-.65-.38-10.79,14.28-21.58,28.55-32.37,42.83-3.1,4.1-6.2,8.2-9.29,12.29-.29.39.36.76.65.38h0Z"/>
          <path d="M284.39,149.52c2.21-17.76,4.42-35.52,6.62-53.28.63-5.1,1.27-10.2,1.9-15.29.06-.48-.69-.47-.75,0-2.21,17.76-4.42,35.52-6.62,53.28-.63,5.1-1.27,10.2-1.9,15.29-.06.48.69.47.75,0h0Z"/>
        </g>
      </g>
      <g>
        <g>
          <path d="M358.14,43.86c0,17.9,0,35.79,0,53.69v15.41c0,.48.75.48.75,0,0-17.9,0-35.79,0-53.69v-15.41c0-.48-.75-.48-.75,0h0Z"/>
          <path d="M340.95,48.66c8.93,15.51,17.85,31.02,26.78,46.53,2.56,4.45,5.12,8.9,7.69,13.36.24.42.89.04.65-.38-8.93-15.51-17.85-31.02-26.78-46.53-2.56-4.45-5.12-8.9-7.69-13.36-.24-.42-.89-.04-.65.38h0Z"/>
          <path d="M323.96,78.79c17.9,0,35.79,0,53.69,0h15.41c.48,0,.48-.75,0-.75-17.9,0-35.79,0-53.69,0h-15.41c-.48,0-.48.75,0,.75h0Z"/>
          <path d="M328.42,61.42c15.49,8.97,30.97,17.94,46.46,26.91,4.45,2.57,8.89,5.15,13.34,7.72.42.24.8-.41.38-.65-15.49-8.97-30.97-17.94-46.46-26.91-4.45-2.57-8.89-5.15-13.34-7.72-.42-.24-.8.41-.38.65h0Z"/>
          <path d="M328.78,96.01c15.5-8.95,31-17.9,46.5-26.84,4.45-2.57,8.9-5.14,13.35-7.71.42-.24.04-.89-.38-.65-15.5,8.95-31,17.9-46.5,26.84l-13.35,7.71c-.42.24-.04.89.38.65h0Z"/>
          <path d="M341.56,108.52c8.95-15.5,17.9-31,26.84-46.5,2.57-4.45,5.14-8.9,7.71-13.35.24-.42-.41-.8-.65-.38-8.95,15.5-17.9,31-26.84,46.5-2.57,4.45-5.14,8.9-7.71,13.35-.24.42.41.8.65.38h0Z"/>
        </g>
        <g>
          <path d="M333.61,54.45c12.76,12.55,25.52,25.09,38.28,37.64,3.66,3.6,7.33,7.2,10.99,10.8.34.34.88-.19.53-.53l-38.28-37.64-10.99-10.8c-.34-.34-.88.19-.53.53h0Z"/>
          <path d="M324.98,70.07c17.32,4.51,34.64,9.02,51.96,13.53l14.91,3.88c.47.12.67-.6.2-.72-17.32-4.51-34.64-9.02-51.96-13.53l-14.91-3.88c-.47-.12-.67.6-.2.72h0Z"/>
          <path d="M334.55,103.31c12.55-12.76,25.09-25.52,37.64-38.28,3.6-3.66,7.2-7.33,10.8-10.99.34-.34-.19-.88-.53-.53-12.55,12.76-25.09,25.52-37.64,38.28-3.6,3.66-7.2,7.33-10.8,10.99-.34.34.19.88.53.53h0Z"/>
          <path d="M325.3,87.95c17.25-4.75,34.51-9.51,51.76-14.26l14.86-4.09c.46-.13.27-.85-.2-.72-17.25,4.75-34.51,9.51-51.76,14.26l-14.86,4.09c-.46.13-.27.85.2.72h0Z"/>
          <path d="M350.21,111.96c4.49-17.33,8.97-34.65,13.46-51.98l3.86-14.92c.12-.47-.6-.67-.72-.2-4.49,17.33-8.97,34.65-13.46,51.98-1.29,4.97-2.58,9.95-3.86,14.92-.12.47.6.67.72.2h0Z"/>
          <path d="M368.1,111.61c-4.78-17.25-9.56-34.49-14.33-51.74-1.37-4.95-2.74-9.9-4.11-14.85-.13-.46-.85-.27-.72.2,4.78,17.25,9.56,34.49,14.33,51.74,1.37,4.95,2.74,9.9,4.11,14.85.13.46.85.27.72-.2h0Z"/>
        </g>
        <g>
          <path d="M337.3,51.08c10.82,14.26,21.64,28.51,32.45,42.77,3.11,4.09,6.21,8.18,9.32,12.28.29.38.94,0,.65-.38-10.82-14.26-21.64-28.51-32.45-42.77-3.11-4.09-6.21-8.18-9.32-12.28-.29-.38-.94,0-.65.38h0Z"/>
          <path d="M326.49,65.3c16.49,6.96,32.97,13.92,49.46,20.88,4.73,2,9.46,4,14.2,5.99.44.19.82-.46.38-.65-16.49-6.96-32.97-13.92-49.46-20.88l-14.2-5.99c-.44-.19-.82.46-.38.65h0Z"/>
          <path d="M331.18,99.62c14.26-10.82,28.51-21.64,42.77-32.45,4.09-3.11,8.18-6.21,12.28-9.32.38-.29,0-.94-.38-.65-14.26,10.82-28.51,21.64-42.77,32.45-4.09,3.11-8.18,6.21-12.28,9.32-.38.29,0,.94.38.65h0Z"/>
          <path d="M324.23,83.06c17.76-2.22,35.52-4.43,53.28-6.65,5.1-.64,10.19-1.27,15.29-1.91.47-.06.48-.81,0-.75-17.76,2.22-35.52,4.43-53.28,6.65-5.1.64-10.19,1.27-15.29,1.91-.47.06-.48.81,0,.75h0Z"/>
          <path d="M345.48,110.36c6.94-16.5,13.88-32.99,20.81-49.49,1.99-4.74,3.98-9.47,5.97-14.21.19-.44-.54-.64-.72-.2-6.94,16.5-13.88,32.99-20.81,49.49-1.99,4.74-3.98,9.47-5.97,14.21-.19.44.54.64.72.2h0Z"/>
          <path d="M363.21,112.69c-2.24-17.76-4.48-35.51-6.72-53.27-.64-5.1-1.29-10.19-1.93-15.29-.06-.47-.81-.48-.75,0,2.24,17.76,4.48,35.51,6.72,53.27.64,5.1,1.29,10.19,1.93,15.29.06.47.81.48.75,0h0Z"/>
        </g>
        <g>
          <path d="M344.73,46.78c6.97,16.48,13.94,32.97,20.9,49.45,2,4.73,4,9.46,6,14.19.19.44.83.06.65-.38-6.97-16.48-13.94-32.97-20.9-49.45-2-4.73-4-9.46-6-14.19-.19-.44-.83-.06-.65.38h0Z"/>
          <path d="M330.79,57.86c14.26,10.81,28.52,21.62,42.79,32.43,4.09,3.1,8.19,6.21,12.28,9.31.38.29.76-.36.38-.65-14.26-10.81-28.52-21.62-42.79-32.43l-12.28-9.31c-.38-.29-.76.36-.38.65h0Z"/>
          <path d="M326.88,92.19c16.48-6.97,32.97-13.94,49.45-20.9,4.73-2,9.46-4,14.19-6,.44-.19.06-.83-.38-.65-16.48,6.97-32.97,13.94-49.45,20.9-4.73,2-9.46,4-14.19,6-.44.19-.06.83.38.65h0Z"/>
          <path d="M324.23,74.48c17.76,2.23,35.51,4.46,53.27,6.69l15.29,1.92c.48.06.47-.69,0-.75-17.76-2.23-35.51-4.46-53.27-6.69l-15.29-1.92c-.48-.06-.47.69,0,.75h0Z"/>
          <path d="M338,106.16c10.79-14.28,21.58-28.55,32.37-42.83,3.1-4.1,6.2-8.2,9.29-12.29.29-.39-.36-.76-.65-.38-10.79,14.28-21.58,28.55-32.37,42.83l-9.29,12.29c-.29.39.36.76.65.38h0Z"/>
          <path d="M354.62,112.7c2.21-17.76,4.42-35.52,6.62-53.28.63-5.1,1.27-10.2,1.9-15.29.06-.48-.69-.47-.75,0-2.21,17.76-4.42,35.52-6.62,53.28-.63,5.1-1.27,10.2-1.9,15.29-.06.48.69.47.75,0h0Z"/>
        </g>
      </g>
      <g>
        <g>
          <path d="M506.89,116.8c0,17.9,0,35.79,0,53.69v15.41c0,.48.75.48.75,0,0-17.9,0-35.79,0-53.69v-15.41c0-.48-.75-.48-.75,0h0Z"/>
          <path d="M489.71,121.59c8.93,15.51,17.85,31.02,26.78,46.53,2.56,4.45,5.12,8.9,7.69,13.36.24.42.89.04.65-.38-8.93-15.51-17.85-31.02-26.78-46.53-2.56-4.45-5.12-8.9-7.69-13.36-.24-.42-.89-.04-.65.38h0Z"/>
          <path d="M472.72,151.72c17.9,0,35.79,0,53.69,0h15.41c.48,0,.48-.75,0-.75-17.9,0-35.79,0-53.69,0h-15.41c-.48,0-.48.75,0,.75h0Z"/>
          <path d="M477.18,134.36c15.49,8.97,30.97,17.94,46.46,26.91,4.45,2.57,8.89,5.15,13.34,7.72.42.24.8-.41.38-.65-15.49-8.97-30.97-17.94-46.46-26.91-4.45-2.57-8.89-5.15-13.34-7.72-.42-.24-.8.41-.38.65h0Z"/>
          <path d="M477.54,168.95c15.5-8.95,31-17.9,46.5-26.84,4.45-2.57,8.9-5.14,13.35-7.71.42-.24.04-.89-.38-.65-15.5,8.95-31,17.9-46.5,26.84-4.45,2.57-8.9,5.14-13.35,7.71-.42.24-.04.89.38.65h0Z"/>
          <path d="M490.32,181.46c8.95-15.5,17.9-31,26.84-46.5,2.57-4.45,5.14-8.9,7.71-13.35.24-.42-.41-.8-.65-.38-8.95,15.5-17.9,31-26.84,46.5-2.57,4.45-5.14,8.9-7.71,13.35-.24.42.41.8.65.38h0Z"/>
        </g>
        <g>
          <path d="M482.37,127.39c12.76,12.55,25.52,25.09,38.28,37.64,3.66,3.6,7.33,7.2,10.99,10.8.34.34.88-.19.53-.53-12.76-12.55-25.52-25.09-38.28-37.64-3.66-3.6-7.33-7.2-10.99-10.8-.34-.34-.88.19-.53.53h0Z"/>
          <path d="M473.73,143c17.32,4.51,34.64,9.02,51.96,13.53l14.91,3.88c.47.12.67-.6.2-.72-17.32-4.51-34.64-9.02-51.96-13.53l-14.91-3.88c-.47-.12-.67.6-.2.72h0Z"/>
          <path d="M483.31,176.25c12.55-12.76,25.09-25.52,37.64-38.28,3.6-3.66,7.2-7.33,10.8-10.99.34-.34-.19-.88-.53-.53-12.55,12.76-25.09,25.52-37.64,38.28-3.6,3.66-7.2,7.33-10.8,10.99-.34.34.19.88.53.53h0Z"/>
          <path d="M474.06,160.89c17.25-4.75,34.51-9.51,51.76-14.26l14.86-4.09c.46-.13.27-.85-.2-.72-17.25,4.75-34.51,9.51-51.76,14.26l-14.86,4.09c-.46.13-.27.85.2.72h0Z"/>
          <path d="M498.97,184.89c4.49-17.33,8.97-34.65,13.46-51.98l3.86-14.92c.12-.47-.6-.67-.72-.2-4.49,17.33-8.97,34.65-13.46,51.98-1.29,4.97-2.58,9.95-3.86,14.92-.12.47.6.67.72.2h0Z"/>
          <path d="M516.85,184.54c-4.78-17.25-9.56-34.49-14.33-51.74-1.37-4.95-2.74-9.9-4.11-14.85-.13-.46-.85-.27-.72.2,4.78,17.25,9.56,34.49,14.33,51.74l4.11,14.85c.13.46.85.27.72-.2h0Z"/>
        </g>
        <g>
          <path d="M486.06,124.01c10.82,14.26,21.64,28.51,32.45,42.77,3.11,4.09,6.21,8.18,9.32,12.28.29.38.94,0,.65-.38-10.82-14.26-21.64-28.51-32.45-42.77-3.11-4.09-6.21-8.18-9.32-12.28-.29-.38-.94,0-.65.38h0Z"/>
          <path d="M475.25,138.23c16.49,6.96,32.97,13.92,49.46,20.88l14.2,5.99c.44.19.82-.46.38-.65-16.49-6.96-32.97-13.92-49.46-20.88-4.73-2-9.46-4-14.2-5.99-.44-.19-.82.46-.38.65h0Z"/>
          <path d="M479.93,172.55c14.26-10.82,28.51-21.64,42.77-32.45,4.09-3.11,8.18-6.21,12.28-9.32.38-.29,0-.94-.38-.65-14.26,10.82-28.51,21.64-42.77,32.45-4.09,3.11-8.18,6.21-12.28,9.32-.38.29,0,.94.38.65h0Z"/>
          <path d="M472.98,156c17.76-2.22,35.52-4.43,53.28-6.65,5.1-.64,10.19-1.27,15.29-1.91.47-.06.48-.81,0-.75-17.76,2.22-35.52,4.43-53.28,6.65-5.1.64-10.19,1.27-15.29,1.91-.47.06-.48.81,0,.75h0Z"/>
          <path d="M494.23,183.29c6.94-16.5,13.88-32.99,20.81-49.49,1.99-4.74,3.98-9.47,5.97-14.21.19-.44-.54-.64-.72-.2-6.94,16.5-13.88,32.99-20.81,49.49-1.99,4.74-3.98,9.47-5.97,14.21-.19.44.54.64.72.2h0Z"/>
          <path d="M511.97,185.63c-2.24-17.76-4.48-35.51-6.72-53.27-.64-5.1-1.29-10.19-1.93-15.29-.06-.47-.81-.48-.75,0,2.24,17.76,4.48,35.51,6.72,53.27.64,5.1,1.29,10.19,1.93,15.29.06.47.81.48.75,0h0Z"/>
        </g>
        <g>
          <path d="M493.49,119.71c6.97,16.48,13.94,32.97,20.9,49.45,2,4.73,4,9.46,6,14.19.19.44.83.06.65-.38-6.97-16.48-13.94-32.97-20.9-49.45l-6-14.19c-.19-.44-.83-.06-.65.38h0Z"/>
          <path d="M479.54,130.8c14.26,10.81,28.52,21.62,42.79,32.43,4.09,3.1,8.19,6.21,12.28,9.31.38.29.76-.36.38-.65-14.26-10.81-28.52-21.62-42.79-32.43l-12.28-9.31c-.38-.29-.76.36-.38.65h0Z"/>
          <path d="M475.63,165.12c16.48-6.97,32.97-13.94,49.45-20.9,4.73-2,9.46-4,14.19-6,.44-.19.06-.83-.38-.65-16.48,6.97-32.97,13.94-49.45,20.9-4.73,2-9.46,4-14.19,6-.44.19-.06.83.38.65h0Z"/>
          <path d="M472.99,147.41c17.76,2.23,35.51,4.46,53.27,6.69,5.1.64,10.19,1.28,15.29,1.92.48.06.47-.69,0-.75-17.76-2.23-35.51-4.46-53.27-6.69l-15.29-1.92c-.48-.06-.47.69,0,.75h0Z"/>
          <path d="M486.76,179.1c10.79-14.28,21.58-28.55,32.37-42.83,3.1-4.1,6.2-8.2,9.29-12.29.29-.39-.36-.76-.65-.38-10.79,14.28-21.58,28.55-32.37,42.83-3.1,4.1-6.2,8.2-9.29,12.29-.29.39.36.76.65.38h0Z"/>
          <path d="M503.38,185.63c2.21-17.76,4.42-35.52,6.62-53.28.63-5.1,1.27-10.2,1.9-15.29.06-.48-.69-.47-.75,0-2.21,17.76-4.42,35.52-6.62,53.28-.63,5.1-1.27,10.2-1.9,15.29-.06.48.69.47.75,0h0Z"/>
        </g>
      </g>
      <g>
        <g>
          <path d="M480.67,204.61c0,17.9,0,35.79,0,53.69v15.41c0,.48.75.48.75,0,0-17.9,0-35.79,0-53.69v-15.41c0-.48-.75-.48-.75,0h0Z"/>
          <path d="M463.49,209.4c8.93,15.51,17.85,31.02,26.78,46.53,2.56,4.45,5.12,8.9,7.69,13.36.24.42.89.04.65-.38-8.93-15.51-17.85-31.02-26.78-46.53-2.56-4.45-5.12-8.9-7.69-13.36-.24-.42-.89-.04-.65.38h0Z"/>
          <path d="M446.49,239.53c17.9,0,35.79,0,53.69,0h15.41c.48,0,.48-.75,0-.75-17.9,0-35.79,0-53.69,0h-15.41c-.48,0-.48.75,0,.75h0Z"/>
          <path d="M450.96,222.17c15.49,8.97,30.97,17.94,46.46,26.91,4.45,2.57,8.89,5.15,13.34,7.72.42.24.8-.41.38-.65-15.49-8.97-30.97-17.94-46.46-26.91-4.45-2.57-8.89-5.15-13.34-7.72-.42-.24-.8.41-.38.65h0Z"/>
          <path d="M451.31,256.76c15.5-8.95,31-17.9,46.5-26.84,4.45-2.57,8.9-5.14,13.35-7.71.42-.24.04-.89-.38-.65-15.5,8.95-31,17.9-46.5,26.84-4.45,2.57-8.9,5.14-13.35,7.71-.42.24-.04.89.38.65h0Z"/>
          <path d="M464.09,269.27c8.95-15.5,17.9-31,26.84-46.5,2.57-4.45,5.14-8.9,7.71-13.35.24-.42-.41-.8-.65-.38-8.95,15.5-17.9,31-26.84,46.5-2.57,4.45-5.14,8.9-7.71,13.35-.24.42.41.8.65.38h0Z"/>
        </g>
        <g>
          <path d="M456.14,215.2c12.76,12.55,25.52,25.09,38.28,37.64l10.99,10.8c.34.34.88-.19.53-.53-12.76-12.55-25.52-25.09-38.28-37.64l-10.99-10.8c-.34-.34-.88.19-.53.53h0Z"/>
          <path d="M447.51,230.81c17.32,4.51,34.64,9.02,51.96,13.53l14.91,3.88c.47.12.67-.6.2-.72-17.32-4.51-34.64-9.02-51.96-13.53l-14.91-3.88c-.47-.12-.67.6-.2.72h0Z"/>
          <path d="M457.09,264.06c12.55-12.76,25.09-25.52,37.64-38.28,3.6-3.66,7.2-7.33,10.8-10.99.34-.34-.19-.88-.53-.53-12.55,12.76-25.09,25.52-37.64,38.28-3.6,3.66-7.2,7.33-10.8,10.99-.34.34.19.88.53.53h0Z"/>
          <path d="M447.84,248.7c17.25-4.75,34.51-9.51,51.76-14.26l14.86-4.09c.46-.13.27-.85-.2-.72-17.25,4.75-34.51,9.51-51.76,14.26l-14.86,4.09c-.46.13-.27.85.2.72h0Z"/>
          <path d="M472.75,272.7c4.49-17.33,8.97-34.65,13.46-51.98l3.86-14.92c.12-.47-.6-.67-.72-.2-4.49,17.33-8.97,34.65-13.46,51.98-1.29,4.97-2.58,9.95-3.86,14.92-.12.47.6.67.72.2h0Z"/>
          <path d="M490.63,272.35c-4.78-17.25-9.56-34.49-14.33-51.74-1.37-4.95-2.74-9.9-4.11-14.85-.13-.46-.85-.27-.72.2,4.78,17.25,9.56,34.49,14.33,51.74l4.11,14.85c.13.46.85.27.72-.2h0Z"/>
        </g>
        <g>
          <path d="M459.84,211.82c10.82,14.26,21.64,28.51,32.45,42.77,3.11,4.09,6.21,8.18,9.32,12.28.29.38.94,0,.65-.38-10.82-14.26-21.64-28.51-32.45-42.77-3.11-4.09-6.21-8.18-9.32-12.28-.29-.38-.94,0-.65.38h0Z"/>
          <path d="M449.02,226.04c16.49,6.96,32.97,13.92,49.46,20.88,4.73,2,9.46,4,14.2,5.99.44.19.82-.46.38-.65-16.49-6.96-32.97-13.92-49.46-20.88l-14.2-5.99c-.44-.19-.82.46-.38.65h0Z"/>
          <path d="M453.71,260.36c14.26-10.82,28.51-21.64,42.77-32.45,4.09-3.11,8.18-6.21,12.28-9.32.38-.29,0-.94-.38-.65-14.26,10.82-28.51,21.64-42.77,32.45-4.09,3.11-8.18,6.21-12.28,9.32-.38.29,0,.94.38.65h0Z"/>
          <path d="M446.76,243.81c17.76-2.22,35.52-4.43,53.28-6.65,5.1-.64,10.19-1.27,15.29-1.91.47-.06.48-.81,0-.75-17.76,2.22-35.52,4.43-53.28,6.65-5.1.64-10.19,1.27-15.29,1.91-.47.06-.48.81,0,.75h0Z"/>
          <path d="M468.01,271.1c6.94-16.5,13.88-32.99,20.81-49.49,1.99-4.74,3.98-9.47,5.97-14.21.19-.44-.54-.64-.72-.2-6.94,16.5-13.88,32.99-20.81,49.49-1.99,4.74-3.98,9.47-5.97,14.21-.19.44.54.64.72.2h0Z"/>
          <path d="M485.74,273.43c-2.24-17.76-4.48-35.51-6.72-53.27-.64-5.1-1.29-10.19-1.93-15.29-.06-.47-.81-.48-.75,0,2.24,17.76,4.48,35.51,6.72,53.27.64,5.1,1.29,10.19,1.93,15.29.06.47.81.48.75,0h0Z"/>
        </g>
        <g>
          <path d="M467.27,207.52c6.97,16.48,13.94,32.97,20.9,49.45,2,4.73,4,9.46,6,14.19.19.44.83.06.65-.38-6.97-16.48-13.94-32.97-20.9-49.45-2-4.73-4-9.46-6-14.19-.19-.44-.83-.06-.65.38h0Z"/>
          <path d="M453.32,218.61c14.26,10.81,28.52,21.62,42.79,32.43,4.09,3.1,8.19,6.21,12.28,9.31.38.29.76-.36.38-.65-14.26-10.81-28.52-21.62-42.79-32.43l-12.28-9.31c-.38-.29-.76.36-.38.65h0Z"/>
          <path d="M449.41,252.93c16.48-6.97,32.97-13.94,49.45-20.9,4.73-2,9.46-4,14.19-6,.44-.19.06-.83-.38-.65-16.48,6.97-32.97,13.94-49.45,20.9-4.73,2-9.46,4-14.19,6-.44.19-.06.83.38.65h0Z"/>
          <path d="M446.76,235.22l53.27,6.69,15.29,1.92c.48.06.47-.69,0-.75-17.76-2.23-35.51-4.46-53.27-6.69l-15.29-1.92c-.48-.06-.47.69,0,.75h0Z"/>
          <path d="M460.53,266.91c10.79-14.28,21.58-28.55,32.37-42.83,3.1-4.1,6.2-8.2,9.29-12.29.29-.39-.36-.76-.65-.38-10.79,14.28-21.58,28.55-32.37,42.83-3.1,4.1-6.2,8.2-9.29,12.29-.29.39.36.76.65.38h0Z"/>
          <path d="M477.16,273.44c2.21-17.76,4.42-35.52,6.62-53.28.63-5.1,1.27-10.2,1.9-15.29.06-.48-.69-.47-.75,0-2.21,17.76-4.42,35.52-6.62,53.28-.63,5.1-1.27,10.2-1.9,15.29-.06.48.69.47.75,0h0Z"/>
        </g>
      </g>
    </g>
  </g>
</svg>