<?xml version="1.0" encoding="UTF-8"?>
<svg id="b" data-name="Layer 2" xmlns="http://www.w3.org/2000/svg" xmlns:xlink="http://www.w3.org/1999/xlink" viewBox="0 0 1280.72 1024.62">
  <defs>
    <style>
      .k {
        fill: url(#j);
      }

      .l {
        fill: url(#f);
      }

      .m {
        fill: #ff8730;
      }

      .n {
        fill: #b20950;
      }
    </style>
    <linearGradient id="f" x1="640.06" y1="606.32" x2="640.06" y2="0" gradientUnits="userSpaceOnUse">
      <stop offset="0" stop-color="#ff753f"/>
      <stop offset=".08" stop-color="#f16d51"/>
      <stop offset=".24" stop-color="#ce5b81"/>
      <stop offset=".47" stop-color="#973dce"/>
      <stop offset=".54" stop-color="#8534e8"/>
      <stop offset="1" stop-color="#00036a"/>
    </linearGradient>
    <linearGradient id="j" x1="640" y1="692.57" x2="640" y2="1121.69" gradientTransform="translate(0 1717.19) scale(1 -1)" gradientUnits="userSpaceOnUse">
      <stop offset="0" stop-color="#e90061"/>
      <stop offset=".03" stop-color="#e90359" stop-opacity=".99"/>
      <stop offset=".14" stop-color="#eb0e41" stop-opacity=".95"/>
      <stop offset=".26" stop-color="#ec1531" stop-opacity=".92"/>
      <stop offset=".39" stop-color="#ec1a27" stop-opacity=".91"/>
      <stop offset=".53" stop-color="#ed1c24" stop-opacity=".9"/>
      <stop offset=".6" stop-color="#ee2623" stop-opacity=".91"/>
      <stop offset=".73" stop-color="#f24122" stop-opacity=".93"/>
      <stop offset=".89" stop-color="#f96e1f" stop-opacity=".97"/>
      <stop offset="1" stop-color="#ff931e"/>
    </linearGradient>
  </defs>
  <g id="c" data-name="Layer 1">
    <g id="d" data-name="background">
      <g id="e" data-name="nightsky">
        <rect class="l" x=".06" width="1280" height="606.32"/>
      </g>
      <path id="g" data-name="purple mtn" class="n" d="M15.06,522.71h1254.32c14.68,0,10.84,2.41,11-10,.02-1.3,0-4.7,0-6l-1-288.45c0-13.45-16.72-19.75-25.68-9.68h0c-8.21,9.24-23.53,4.82-25.5-7.36l-11.19-69.23c-1.14-7.08-7.29-12.29-14.5-12.29h-5.74c-7.38,0-13.62,5.45-14.56,12.74l-13.89,107.29c-.9,6.95-6.63,12.28-13.67,12.71l-77.44,4.72c-5.51.34-10.75-2.43-13.55-7.16l-24.07-40.62c-2.79-4.71-7.99-7.48-13.48-7.17l-86.1,4.85c-6.77.38-12.4,5.33-13.62,11.97l-14.71,80.47c-.83,4.54-3.76,8.42-7.92,10.47l-126.42,62.45c-12.21,6.03-26.05,7.93-39.43,5.41l-177.46-33.46c-17.72-3.34-36.02,1.1-50.25,12.19l-37.71,29.41c-8.32,6.49-20.61,2.37-23.27-7.81l-47.8-182.52c-1.68-6.43-7.53-10.92-14.21-10.92h-67.33c-6.43,0-12.11,4.16-14.02,10.27l-30.68,98.13c-1.96,6.27-7.88,10.46-14.48,10.26l-144.53-4.46c-3.96-.12-7.7-1.83-10.37-4.73L25.89,207.41c-9.05-9.82-25.51-3.46-25.51,9.86v290.83q0,7.6,0,12.6c0,2,1,2,14.68,2Z"/>
      <g id="h" data-name="orgmtn">
        <path class="m" d="M1265.78,598.99H11.47c-14.68,0-10.84,2.41-11-10-.02-1.3,0-4.7,0-6l1-288.45c0-13.45,16.72-19.75,25.68-9.68h0c8.21,9.24,23.53,4.82,25.5-7.36l11.19-69.23c1.14-7.08,7.29-12.29,14.5-12.29h5.74c7.38,0,13.62,5.45,14.56,12.74l13.89,107.29c.9,6.95,6.63,12.28,13.67,12.71l77.44,4.72c5.51.34,10.75-2.43,13.55-7.16l24.07-40.62c2.79-4.71,7.99-7.48,13.48-7.17l86.1,4.85c6.77.38,12.4,5.33,13.62,11.97l14.71,80.47c.83,4.54,3.76,8.42,7.92,10.47l126.42,62.45c12.21,6.03,26.05,7.93,39.43,5.41l177.46-33.46c17.72-3.34,36.02,1.1,50.25,12.19l37.71,29.41c8.32,6.49,20.61,2.37,23.27-7.81l47.8-182.52c1.68-6.43,7.53-10.92,14.21-10.92h67.33c6.43,0,12.11,4.16,14.02,10.27l30.68,98.13c1.96,6.27,7.88,10.46,14.48,10.26l144.53-4.46c3.96-.12,7.7-1.83,10.37-4.73l79.9-86.76c9.05-9.82,25.51-3.46,25.51,9.86v303.44c0,2-1,2-14.68,2Z"/>
      </g>
      <g id="i" data-name="foreground">
        <rect class="k" y="595.5" width="1280" height="429.12"/>
      </g>
    </g>
  </g>
</svg>