<?xml version="1.0" encoding="UTF-8"?>
<svg id="b" data-name="Layer 2" xmlns="http://www.w3.org/2000/svg" viewBox="0 0 1280.34 294.91">
  <defs>
    <style>
      .e {
        fill: none;
      }

      .f {
        fill: #fff;
      }
    </style>
  </defs>
  <g id="c" data-name="Layer 1">
    <g id="d" data-name="stars">
      <rect class="e" width="1280.34" height="294.91"/>
      <path class="f" d="M198.41,67.12c1.93,0,1.93-3,0-3s-1.93,3,0,3h0Z"/>
      <path class="f" d="M164.81,100.72c1.93,0,1.93-3,0-3s-1.93,3,0,3h0Z"/>
      <path class="f" d="M119.21,172.73c1.93,0,1.93-3,0-3s-1.93,3,0,3h0Z"/>
      <path class="f" d="M229.61,182.33c1.93,0,1.93-3,0-3s-1.93,3,0,3h0Z"/>
      <path class="f" d="M246.41,100.72c1.93,0,1.93-3,0-3s-1.93,3,0,3h0Z"/>
      <path class="f" d="M390.42,148.72c1.93,0,1.93-3,0-3s-1.93,3,0,3h0Z"/>
      <path class="f" d="M359.22,69.52c1.93,0,1.93-3,0-3s-1.93,3,0,3h0Z"/>
      <path class="f" d="M289.61,33.52c1.93,0,1.93-3,0-3s-1.93,3,0,3h0Z"/>
      <path class="f" d="M349.62,134.32c1.93,0,1.93-3,0-3s-1.93,3,0,3h0Z"/>
      <path class="f" d="M318.42,215.93c1.93,0,1.93-3,0-3s-1.93,3,0,3h0Z"/>
      <path class="f" d="M251.21,146.32c1.93,0,1.93-3,0-3s-1.93,3,0,3h0Z"/>
      <path class="f" d="M176.81,141.52c1.93,0,1.93-3,0-3s-1.93,3,0,3h0Z"/>
      <path class="f" d="M167.21,215.93c1.93,0,1.93-3,0-3s-1.93,3,0,3h0Z"/>
      <path class="f" d="M59.2,86.32c1.93,0,1.93-3,0-3s-1.93,3,0,3h0Z"/>
      <path class="f" d="M49.6,235.13c1.93,0,1.93-3,0-3s-1.93,3,0,3h0Z"/>
      <path class="f" d="M500.82,105.52c1.93,0,1.93-3,0-3s-1.93,3,0,3h0Z"/>
      <path class="f" d="M486.42,213.53c1.93,0,1.93-3,0-3s-1.93,3,0,3h0Z"/>
      <path class="f" d="M476.82,127.12c1.93,0,1.93-3,0-3s-1.93,3,0,3h0Z"/>
      <path class="f" d="M436.02,50.32c1.93,0,1.93-3,0-3s-1.93,3,0,3h0Z"/>
      <path class="f" d="M541.63,50.32c1.93,0,1.93-3,0-3s-1.93,3,0,3h0Z"/>
      <path class="f" d="M570.43,110.32c1.93,0,1.93-3,0-3s-1.93,3,0,3h0Z"/>
      <path class="f" d="M594.43,170.33c1.93,0,1.93-3,0-3s-1.93,3,0,3h0Z"/>
      <path class="f" d="M700.03,213.53c1.93,0,1.93-3,0-3s-1.93,3,0,3h0Z"/>
      <path class="f" d="M702.43,151.12c1.93,0,1.93-3,0-3s-1.93,3,0,3h0Z"/>
      <path class="f" d="M685.63,86.32c1.93,0,1.93-3,0-3s-1.93,3,0,3h0Z"/>
      <path class="f" d="M666.43,81.52c1.93,0,1.93-3,0-3s-1.93,3,0,3h0Z"/>
      <path class="f" d="M601.63,81.52c1.93,0,1.93-3,0-3s-1.93,3,0,3h0Z"/>
      <path class="f" d="M642.43,131.92c1.93,0,1.93-3,0-3s-1.93,3,0,3h0Z"/>
      <path class="f" d="M649.63,139.12c1.93,0,1.93-3,0-3s-1.93,3,0,3h0Z"/>
      <path class="f" d="M649.63,215.93c1.93,0,1.93-3,0-3s-1.93,3,0,3h0Z"/>
      <path class="f" d="M524.83,213.53c1.93,0,1.93-3,0-3s-1.93,3,0,3h0Z"/>
      <path class="f" d="M524.83,160.73c1.93,0,1.93-3,0-3s-1.93,3,0,3h0Z"/>
      <path class="f" d="M390.42,201.53c1.93,0,1.93-3,0-3s-1.93,3,0,3h0Z"/>
      <path class="f" d="M443.22,179.93c1.93,0,1.93-3,0-3s-1.93,3,0,3h0Z"/>
      <path class="f" d="M829.64,184.73c1.93,0,1.93-3,0-3s-1.93,3,0,3h0Z"/>
      <path class="f" d="M829.64,184.73c1.93,0,1.93-3,0-3s-1.93,3,0,3h0Z"/>
      <path class="f" d="M786.44,107.92c1.93,0,1.93-3,0-3s-1.93,3,0,3h0Z"/>
      <path class="f" d="M779.24,172.73c1.93,0,1.93-3,0-3s-1.93,3,0,3h0Z"/>
      <path class="f" d="M918.45,131.92c1.93,0,1.93-3,0-3s-1.93,3,0,3h0Z"/>
      <path class="f" d="M988.05,151.12c1.93,0,1.93-3,0-3s-1.93,3,0,3h0Z"/>
      <path class="f" d="M1016.85,213.53c1.93,0,1.93-3,0-3s-1.93,3,0,3h0Z"/>
      <path class="f" d="M947.25,47.92c1.93,0,1.93-3,0-3s-1.93,3,0,3h0Z"/>
      <path class="f" d="M904.04,55.12c1.93,0,1.93-3,0-3s-1.93,3,0,3h0Z"/>
      <path class="f" d="M844.04,74.32c1.93,0,1.93-3,0-3s-1.93,3,0,3h0Z"/>
      <path class="f" d="M846.44,93.52c1.93,0,1.93-3,0-3s-1.93,3,0,3h0Z"/>
      <path class="f" d="M887.24,151.12c1.93,0,1.93-3,0-3s-1.93,3,0,3h0Z"/>
      <path class="f" d="M911.25,227.93c1.93,0,1.93-3,0-3s-1.93,3,0,3h0Z"/>
      <path class="f" d="M851.24,239.93c1.93,0,1.93-3,0-3s-1.93,3,0,3h0Z"/>
      <path class="f" d="M980.85,242.33c1.93,0,1.93-3,0-3s-1.93,3,0,3h0Z"/>
      <path class="f" d="M976.05,167.93c1.93,0,1.93-3,0-3s-1.93,3,0,3h0Z"/>
      <path class="f" d="M959.25,136.72c1.93,0,1.93-3,0-3s-1.93,3,0,3h0Z"/>
      <path class="f" d="M992.85,71.92c1.93,0,1.93-3,0-3s-1.93,3,0,3h0Z"/>
      <path class="f" d="M995.25,71.92c1.93,0,1.93-3,0-3s-1.93,3,0,3h0Z"/>
      <path class="f" d="M1079.25,107.92c1.93,0,1.93-3,0-3s-1.93,3,0,3h0Z"/>
      <path class="f" d="M1079.25,136.72c1.93,0,1.93-3,0-3s-1.93,3,0,3h0Z"/>
      <path class="f" d="M1043.25,134.32c1.93,0,1.93-3,0-3s-1.93,3,0,3h0Z"/>
      <path class="f" d="M1019.25,76.72c1.93,0,1.93-3,0-3s-1.93,3,0,3h0Z"/>
      <path class="f" d="M1079.25,40.72c1.93,0,1.93-3,0-3s-1.93,3,0,3h0Z"/>
      <path class="f" d="M1103.25,55.12c1.93,0,1.93-3,0-3s-1.93,3,0,3h0Z"/>
      <path class="f" d="M1218.46,79.12c1.93,0,1.93-3,0-3s-1.93,3,0,3h0Z"/>
      <path class="f" d="M1216.06,115.12c1.93,0,1.93-3,0-3s-1.93,3,0,3h0Z"/>
      <path class="f" d="M1216.06,163.13c1.93,0,1.93-3,0-3s-1.93,3,0,3h0Z"/>
      <path class="f" d="M1180.06,239.93c1.93,0,1.93-3,0-3s-1.93,3,0,3h0Z"/>
      <path class="f" d="M1093.65,218.33c1.93,0,1.93-3,0-3s-1.93,3,0,3h0Z"/>
      <path class="f" d="M1122.46,196.73c1.93,0,1.93-3,0-3s-1.93,3,0,3h0Z"/>
      <path class="f" d="M1153.66,146.32c1.93,0,1.93-3,0-3s-1.93,3,0,3h0Z"/>
      <path class="f" d="M1122.46,86.32c1.93,0,1.93-3,0-3s-1.93,3,0,3h0Z"/>
      <path class="f" d="M1182.46,40.72c1.93,0,1.93-3,0-3s-1.93,3,0,3h0Z"/>
      <path class="f" d="M143.21,26.32c1.93,0,1.93-3,0-3s-1.93,3,0,3h0Z"/>
      <path class="f" d="M78.4,14.32c1.93,0,1.93-3,0-3s-1.93,3,0,3h0Z"/>
      <path class="f" d="M104.81,86.32c1.93,0,1.93-3,0-3s-1.93,3,0,3h0Z"/>
      <path class="f" d="M42.4,139.12c1.93,0,1.93-3,0-3s-1.93,3,0,3h0Z"/>
      <path class="f" d="M20.8,43.12c1.93,0,1.93-3,0-3s-1.93,3,0,3h0Z"/>
      <path class="f" d="M119.21,251.93c1.93,0,1.93-3,0-3s-1.93,3,0,3h0Z"/>
      <path class="f" d="M234.41,249.53c1.93,0,1.93-3,0-3s-1.93,3,0,3h0Z"/>
      <path class="f" d="M330.42,287.93c1.93,0,1.93-3,0-3s-1.93,3,0,3h0Z"/>
      <path class="f" d="M304.02,129.52c1.93,0,1.93-3,0-3s-1.93,3,0,3h0Z"/>
      <path class="f" d="M340.02,43.12c1.93,0,1.93-3,0-3s-1.93,3,0,3h0Z"/>
      <path class="f" d="M443.22,148.72c1.93,0,1.93-3,0-3s-1.93,3,0,3h0Z"/>
      <path class="f" d="M412.02,259.13c1.93,0,1.93-3,0-3s-1.93,3,0,3h0Z"/>
      <path class="f" d="M402.42,105.52c1.93,0,1.93-3,0-3s-1.93,3,0,3h0Z"/>
      <path class="f" d="M474.42,71.92c1.93,0,1.93-3,0-3s-1.93,3,0,3h0Z"/>
      <path class="f" d="M587.23,259.13c1.93,0,1.93-3,0-3s-1.93,3,0,3h0Z"/>
      <path class="f" d="M474.42,247.13c1.93,0,1.93-3,0-3s-1.93,3,0,3h0Z"/>
      <path class="f" d="M580.03,201.53c1.93,0,1.93-3,0-3s-1.93,3,0,3h0Z"/>
      <path class="f" d="M685.63,247.13c1.93,0,1.93-3,0-3s-1.93,3,0,3h0Z"/>
      <path class="f" d="M791.24,268.73c1.93,0,1.93-3,0-3s-1.93,3,0,3h0Z"/>
      <path class="f" d="M743.24,175.13c1.93,0,1.93-3,0-3s-1.93,3,0,3h0Z"/>
      <path class="f" d="M743.24,98.32c1.93,0,1.93-3,0-3s-1.93,3,0,3h0Z"/>
      <path class="f" d="M702.43,35.92c1.93,0,1.93-3,0-3s-1.93,3,0,3h0Z"/>
      <path class="f" d="M832.04,50.32c1.93,0,1.93-3,0-3s-1.93,3,0,3h0Z"/>
      <path class="f" d="M776.84,26.32c1.93,0,1.93-3,0-3s-1.93,3,0,3h0Z"/>
      <path class="f" d="M937.65,196.73c1.93,0,1.93-3,0-3s-1.93,3,0,3h0Z"/>
      <path class="f" d="M916.05,263.93c1.93,0,1.93-3,0-3s-1.93,3,0,3h0Z"/>
      <path class="f" d="M853.64,206.33c1.93,0,1.93-3,0-3s-1.93,3,0,3h0Z"/>
      <path class="f" d="M731.24,211.13c1.93,0,1.93-3,0-3s-1.93,3,0,3h0Z"/>
      <path class="f" d="M870.44,14.32c1.93,0,1.93-3,0-3s-1.93,3,0,3h0Z"/>
      <path class="f" d="M899.24,81.52c1.93,0,1.93-3,0-3s-1.93,3,0,3h0Z"/>
      <path class="f" d="M892.04,105.52c1.93,0,1.93-3,0-3s-1.93,3,0,3h0Z"/>
      <path class="f" d="M978.45,103.12c1.93,0,1.93-3,0-3s-1.93,3,0,3h0Z"/>
      <path class="f" d="M1055.25,189.53c1.93,0,1.93-3,0-3s-1.93,3,0,3h0Z"/>
      <path class="f" d="M1055.25,275.93c1.93,0,1.93-3,0-3s-1.93,3,0,3h0Z"/>
      <path class="f" d="M1120.06,263.93c1.93,0,1.93-3,0-3s-1.93,3,0,3h0Z"/>
      <path class="f" d="M1163.26,196.73c1.93,0,1.93-3,0-3s-1.93,3,0,3h0Z"/>
      <path class="f" d="M1086.45,153.52c1.93,0,1.93-3,0-3s-1.93,3,0,3h0Z"/>
      <path class="f" d="M1223.26,95.92c1.93,0,1.93-3,0-3s-1.93,3,0,3h0Z"/>
      <path class="f" d="M1156.06,55.12c1.93,0,1.93-3,0-3s-1.93,3,0,3h0Z"/>
      <path class="f" d="M1129.66,40.72c1.93,0,1.93-3,0-3s-1.93,3,0,3h0Z"/>
      <path class="f" d="M1177.66,107.92c1.93,0,1.93-3,0-3s-1.93,3,0,3h0Z"/>
      <path class="f" d="M1194.46,160.73c1.93,0,1.93-3,0-3s-1.93,3,0,3h0Z"/>
      <path class="f" d="M1268.86,117.52c1.93,0,1.93-3,0-3s-1.93,3,0,3h0Z"/>
      <path class="f" d="M1249.66,38.32c1.93,0,1.93-3,0-3s-1.93,3,0,3h0Z"/>
      <path class="f" d="M1254.46,218.33c1.93,0,1.93-3,0-3s-1.93,3,0,3h0Z"/>
      <path class="f" d="M1194.46,263.93c1.93,0,1.93-3,0-3s-1.93,3,0,3h0Z"/>
      <path class="f" d="M80.8,151.12c1.93,0,1.93-3,0-3s-1.93,3,0,3h0Z"/>
      <path class="f" d="M100.01,196.73c1.93,0,1.93-3,0-3s-1.93,3,0,3h0Z"/>
      <path class="f" d="M73.6,259.13c1.93,0,1.93-3,0-3s-1.93,3,0,3h0Z"/>
      <path class="f" d="M198.41,249.53c1.93,0,1.93-3,0-3s-1.93,3,0,3h0Z"/>
      <path class="f" d="M186.41,124.72c1.93,0,1.93-3,0-3s-1.93,3,0,3h0Z"/>
      <path class="f" d="M54.4,67.12c1.93,0,1.93-3,0-3s-1.93,3,0,3h0Z"/>
      <path class="f" d="M268.01,119.92c1.93,0,1.93-3,0-3s-1.93,3,0,3h0Z"/>
      <path class="f" d="M275.21,227.93c1.93,0,1.93-3,0-3s-1.93,3,0,3h0Z"/>
      <path class="f" d="M347.22,223.13c1.93,0,1.93-3,0-3s-1.93,3,0,3h0Z"/>
      <path class="f" d="M347.22,155.93c1.93,0,1.93-3,0-3s-1.93,3,0,3h0Z"/>
      <path class="f" d="M318.42,76.72c1.93,0,1.93-3,0-3s-1.93,3,0,3h0Z"/>
      <path class="f" d="M265.61,81.52c1.93,0,1.93-3,0-3s-1.93,3,0,3h0Z"/>
      <path class="f" d="M332.82,160.73c1.93,0,1.93-3,0-3s-1.93,3,0,3h0Z"/>
      <path class="f" d="M241.61,167.93c1.93,0,1.93-3,0-3s-1.93,3,0,3h0Z"/>
      <path class="f" d="M481.62,249.53c1.93,0,1.93-3,0-3s-1.93,3,0,3h0Z"/>
      <path class="f" d="M539.23,266.33c1.93,0,1.93-3,0-3s-1.93,3,0,3h0Z"/>
      <path class="f" d="M628.03,271.13c1.93,0,1.93-3,0-3s-1.93,3,0,3h0Z"/>
      <path class="f" d="M630.43,220.73c1.93,0,1.93-3,0-3s-1.93,3,0,3h0Z"/>
      <path class="f" d="M623.23,175.13c1.93,0,1.93-3,0-3s-1.93,3,0,3h0Z"/>
      <path class="f" d="M697.63,177.53c1.93,0,1.93-3,0-3s-1.93,3,0,3h0Z"/>
      <path class="f" d="M635.23,38.32c1.93,0,1.93-3,0-3s-1.93,3,0,3h0Z"/>
      <path class="f" d="M582.43,31.12c1.93,0,1.93-3,0-3s-1.93,3,0,3h0Z"/>
      <path class="f" d="M728.84,242.33c1.93,0,1.93-3,0-3s-1.93,3,0,3h0Z"/>
      <path class="f" d="M779.24,227.93c1.93,0,1.93-3,0-3s-1.93,3,0,3h0Z"/>
      <path class="f" d="M810.44,155.93c1.93,0,1.93-3,0-3s-1.93,3,0,3h0Z"/>
      <path class="f" d="M743.24,129.52c1.93,0,1.93-3,0-3s-1.93,3,0,3h0Z"/>
      <path class="f" d="M786.44,83.92c1.93,0,1.93-3,0-3s-1.93,3,0,3h0Z"/>
      <path class="f" d="M731.24,47.92c1.93,0,1.93-3,0-3s-1.93,3,0,3h0Z"/>
      <path class="f" d="M839.24,136.72c1.93,0,1.93-3,0-3s-1.93,3,0,3h0Z"/>
      <path class="f" d="M884.84,199.13c1.93,0,1.93-3,0-3s-1.93,3,0,3h0Z"/>
      <path class="f" d="M935.25,100.72c1.93,0,1.93-3,0-3s-1.93,3,0,3h0Z"/>
      <path class="f" d="M952.05,69.52c1.93,0,1.93-3,0-3s-1.93,3,0,3h0Z"/>
      <path class="f" d="M947.25,244.73c1.93,0,1.93-3,0-3s-1.93,3,0,3h0Z"/>
      <path class="f" d="M935.25,163.13c1.93,0,1.93-3,0-3s-1.93,3,0,3h0Z"/>
      <path class="f" d="M973.65,199.13c1.93,0,1.93-3,0-3s-1.93,3,0,3h0Z"/>
      <path class="f" d="M1081.65,184.73c1.93,0,1.93-3,0-3s-1.93,3,0,3h0Z"/>
      <path class="f" d="M1045.65,167.93c1.93,0,1.93-3,0-3s-1.93,3,0,3h0Z"/>
      <path class="f" d="M1050.45,110.32c1.93,0,1.93-3,0-3s-1.93,3,0,3h0Z"/>
      <path class="f" d="M1014.45,107.92c1.93,0,1.93-3,0-3s-1.93,3,0,3h0Z"/>
      <path class="f" d="M1016.85,167.93c1.93,0,1.93-3,0-3s-1.93,3,0,3h0Z"/>
      <path class="f" d="M1024.05,26.32c1.93,0,1.93-3,0-3s-1.93,3,0,3h0Z"/>
      <path class="f" d="M1055.25,69.52c1.93,0,1.93-3,0-3s-1.93,3,0,3h0Z"/>
      <path class="f" d="M1108.05,141.52c1.93,0,1.93-3,0-3s-1.93,3,0,3h0Z"/>
      <path class="f" d="M1153.66,103.12c1.93,0,1.93-3,0-3s-1.93,3,0,3h0Z"/>
      <path class="f" d="M1201.66,201.53c1.93,0,1.93-3,0-3s-1.93,3,0,3h0Z"/>
      <path class="f" d="M1146.46,235.13c1.93,0,1.93-3,0-3s-1.93,3,0,3h0Z"/>
      <path class="f" d="M1060.05,249.53c1.93,0,1.93-3,0-3s-1.93,3,0,3h0Z"/>
      <path class="f" d="M299.21,189.53c1.93,0,1.93-3,0-3s-1.93,3,0,3h0Z"/>
      <path class="f" d="M145.61,187.13c1.93,0,1.93-3,0-3s-1.93,3,0,3h0Z"/>
      <path class="f" d="M227.21,172.73c1.93,0,1.93-3,0-3s-1.93,3,0,3h0Z"/>
      <path class="f" d="M140.81,122.32c1.93,0,1.93-3,0-3s-1.93,3,0,3h0Z"/>
      <path class="f" d="M217.61,57.52c1.93,0,1.93-3,0-3s-1.93,3,0,3h0Z"/>
      <path class="f" d="M160.01,31.12c1.93,0,1.93-3,0-3s-1.93,3,0,3h0Z"/>
      <path class="f" d="M128.81,64.72c1.93,0,1.93-3,0-3s-1.93,3,0,3h0Z"/>
      <path class="f" d="M222.41,45.52c1.93,0,1.93-3,0-3s-1.93,3,0,3h0Z"/>
      <path class="f" d="M220.01,122.32c1.93,0,1.93-3,0-3s-1.93,3,0,3h0Z"/>
      <path class="f" d="M210.41,86.32c1.93,0,1.93-3,0-3s-1.93,3,0,3h0Z"/>
      <path class="f" d="M198.41,203.93c1.93,0,1.93-3,0-3s-1.93,3,0,3h0Z"/>
      <path class="f" d="M191.21,175.13c1.93,0,1.93-3,0-3s-1.93,3,0,3h0Z"/>
      <path class="f" d="M270.41,278.33c1.93,0,1.93-3,0-3s-1.93,3,0,3h0Z"/>
      <path class="f" d="M167.21,268.73c1.93,0,1.93-3,0-3s-1.93,3,0,3h0Z"/>
      <path class="f" d="M32.8,206.33c1.93,0,1.93-3,0-3s-1.93,3,0,3h0Z"/>
      <path class="f" d="M378.42,268.73c1.93,0,1.93-3,0-3s-1.93,3,0,3h0Z"/>
      <path class="f" d="M436.02,237.53c1.93,0,1.93-3,0-3s-1.93,3,0,3h0Z"/>
      <path class="f" d="M371.22,189.53c1.93,0,1.93-3,0-3s-1.93,3,0,3h0Z"/>
      <path class="f" d="M460.02,203.93c1.93,0,1.93-3,0-3s-1.93,3,0,3h0Z"/>
      <path class="f" d="M493.62,179.93c1.93,0,1.93-3,0-3s-1.93,3,0,3h0Z"/>
      <path class="f" d="M450.42,110.32c1.93,0,1.93-3,0-3s-1.93,3,0,3h0Z"/>
      <path class="f" d="M565.63,143.92c1.93,0,1.93-3,0-3s-1.93,3,0,3h0Z"/>
      <path class="f" d="M541.63,88.72c1.93,0,1.93-3,0-3s-1.93,3,0,3h0Z"/>
      <path class="f" d="M572.83,74.32c1.93,0,1.93-3,0-3s-1.93,3,0,3h0Z"/>
      <path class="f" d="M493.62,43.12c1.93,0,1.93-3,0-3s-1.93,3,0,3h0Z"/>
      <path class="f" d="M551.23,191.93c1.93,0,1.93-3,0-3s-1.93,3,0,3h0Z"/>
      <path class="f" d="M1268.86,266.33c1.93,0,1.93-3,0-3s-1.93,3,0,3h0Z"/>
      <path class="f" d="M1278.46,189.53c1.93,0,1.93-3,0-3s-1.93,3,0,3h0Z"/>
      <path class="f" d="M1235.26,175.13c1.93,0,1.93-3,0-3s-1.93,3,0,3h0Z"/>
      <path class="f" d="M1232.86,235.13c1.93,0,1.93-3,0-3s-1.93,3,0,3h0Z"/>
      <path class="f" d="M1261.66,160.73c1.93,0,1.93-3,0-3s-1.93,3,0,3h0Z"/>
      <path class="f" d="M1244.86,131.92c1.93,0,1.93-3,0-3s-1.93,3,0,3h0Z"/>
      <path class="f" d="M1259.26,95.92c1.93,0,1.93-3,0-3s-1.93,3,0,3h0Z"/>
      <path class="f" d="M1228.06,31.12c1.93,0,1.93-3,0-3s-1.93,3,0,3h0Z"/>
      <path class="f" d="M1235.26,273.53c1.93,0,1.93-3,0-3s-1.93,3,0,3h0Z"/>
    </g>
  </g>
</svg>